<!-- Generator: Adobe Illustrator 25.1.0, SVG Export Plug-In  -->
<svg version="1.1" xmlns="http://www.w3.org/2000/svg" xmlns:xlink="http://www.w3.org/1999/xlink" x="0px" y="0px" width="48px"
	 height="48px" viewBox="0 0 48 48" style="overflow:visible;enable-background:new 0 0 48 48;" xml:space="preserve">
<style type="text/css">
	.st0{opacity:0;fill:#FFFFFF;}
	.st1{fill:#C1A833;}
</style>
<defs>
</defs>
<rect class="st0" width="48" height="48"/>
<g>
	<g>
		<path class="st1" d="M26.2,43.6h-4.5c-1.4,0-2.4-1.1-2.4-2.4v-0.8c0-0.6-0.3-1.1-0.8-1.5c-0.6-0.5-1.4-0.6-2.1-0.5
			c-0.2,0-0.5,0.3-0.7,0.4l-0.6,0.6c-0.5,0.5-1.1,0.7-1.7,0.7c0,0,0,0,0,0c-0.7,0-1.3-0.3-1.7-0.7l-3.1-3.1c-1-1-1-2.5,0-3.5
			l0.6-0.6c0.4-0.4,0.6-1.1,0.5-1.8c-0.2-0.8-0.7-1.4-1.4-1.7c-0.1,0-0.3-0.1-0.5-0.1H6.9c-1.4,0-2.4-1.1-2.4-2.4l0-4.5
			c0-1.4,1.1-2.4,2.4-2.4h0.8c0.6,0,1.1-0.3,1.5-0.8c0.5-0.6,0.6-1.4,0.5-2.1c0-0.2-0.3-0.5-0.4-0.7l-0.6-0.6
			c-0.5-0.5-0.7-1.1-0.7-1.7c0-0.7,0.3-1.3,0.7-1.7l3.1-3.1c0.5-0.5,1.1-0.7,1.7-0.7c0,0,0,0,0,0c0.7,0,1.3,0.3,1.7,0.7l0.6,0.6
			c0.4,0.4,1,0.6,1.7,0.5c0.7-0.1,1.4-0.6,1.7-1.3c0.1-0.1,0.1-0.5,0.1-0.7V6.9c0-1.4,1.1-2.4,2.4-2.4h4.5c1.4,0,2.4,1.1,2.4,2.4
			v0.8c0,0.6,0.3,1.1,0.8,1.5c0.6,0.5,1.4,0.6,2.1,0.5c0.2,0,0.5-0.3,0.7-0.4l0.6-0.6c1-1,2.5-1,3.5,0l3.2,3.2
			c0.5,0.5,0.7,1.1,0.7,1.7c0,0.7-0.3,1.3-0.7,1.7l-0.5,0.5c-0.4,0.4-0.6,1-0.5,1.7c0.1,0.7,0.6,1.4,1.3,1.7
			c0.1,0.1,0.5,0.1,0.7,0.1h0.8c1.4,0,2.4,1.1,2.4,2.4l0,4.5c0,1.4-1.1,2.4-2.4,2.4h-0.8c-0.6,0-1.1,0.3-1.5,0.8
			c-0.5,0.6-0.6,1.4-0.5,2.1c0,0.2,0.3,0.5,0.4,0.7l0.6,0.6c1,1,1,2.5,0,3.5l-3.1,3.1c-1,1-2.5,1-3.5,0l-0.6-0.6
			c-0.4-0.4-1.1-0.6-1.8-0.5c-0.8,0.2-1.4,0.7-1.7,1.4c0,0.1-0.1,0.3-0.1,0.5v0.8C28.7,42.5,27.6,43.6,26.2,43.6z M17,36.7
			c0.9,0,1.8,0.3,2.5,0.9c0.9,0.7,1.4,1.7,1.4,2.8v0.8c0,0.5,0.4,0.8,0.8,0.8h4.5c0.5,0,0.8-0.4,0.8-0.8v-0.8c0-0.2,0-0.7,0.2-1.1
			c0.5-1.3,1.6-2.2,2.9-2.4c1.2-0.2,2.4,0.1,3.3,0.9l0.6,0.6c0.3,0.3,0.8,0.3,1.2,0l3.1-3.1c0.3-0.3,0.3-0.8,0-1.2l-0.6-0.6
			c-0.3-0.3-0.7-0.9-0.8-1.5c-0.3-1.2,0-2.5,0.8-3.5c0.7-0.9,1.7-1.4,2.8-1.4h0.8c0.5,0,0.8-0.4,0.8-0.8l0-4.5
			c0-0.5-0.4-0.8-0.8-0.8h-0.8c-0.4,0-1-0.1-1.4-0.3c-1.1-0.6-2-1.7-2.2-2.9c-0.2-1.2,0.2-2.3,1-3.1l0.6-0.5
			c0.2-0.2,0.2-0.4,0.2-0.6c0-0.2-0.1-0.4-0.2-0.6l-3.2-3.2c-0.3-0.3-0.8-0.3-1.2,0l-0.6,0.6c-0.3,0.3-0.9,0.7-1.4,0.8
			c-1.2,0.3-2.5,0-3.5-0.8C27.6,9.7,27,8.7,27,7.6V6.9C27,6.4,26.7,6,26.2,6h-4.5C21.3,6,21,6.4,21,6.9v0.8c0,0.4-0.1,1-0.3,1.4
			c-0.6,1.1-1.7,1.9-2.9,2.2c-1.2,0.2-2.3-0.2-3.1-1L14,9.7c-0.2-0.2-0.4-0.2-0.6-0.2h0c-0.2,0-0.4,0.1-0.6,0.2l-3.1,3.1
			c-0.2,0.2-0.2,0.4-0.2,0.6c0,0.2,0.1,0.4,0.2,0.6l0.6,0.6c0.3,0.3,0.7,0.9,0.8,1.5c0.3,1.2,0,2.5-0.8,3.5C9.7,20.4,8.7,21,7.6,21
			H6.9C6.4,21,6,21.3,6,21.8l0,4.5C6,26.7,6.4,27,6.9,27h0.8c0.2,0,0.7,0,1.1,0.2c1.3,0.5,2.2,1.6,2.4,2.9c0.2,1.2-0.1,2.4-0.9,3.3
			L9.7,34c-0.3,0.3-0.3,0.8,0,1.2l3.1,3.1c0.2,0.2,0.4,0.2,0.6,0.2h0c0.2,0,0.4-0.1,0.6-0.2l0.6-0.6c0.3-0.3,0.9-0.7,1.4-0.8
			C16.4,36.7,16.7,36.7,17,36.7z"/>
	</g>
	<g>
		<path class="st1" d="M24,33c-5,0-9-4-9-9s4-9,9-9c1.1,0,2.2,0.2,3.2,0.6c0.4,0.2,0.6,0.6,0.5,1.1s-0.6,0.6-1.1,0.5
			c-0.8-0.3-1.7-0.5-2.6-0.5c-4.1,0-7.3,3.3-7.3,7.3s3.3,7.3,7.3,7.3s7.3-3.3,7.3-7.3c0-1.2-0.3-2.5-0.9-3.5
			c-0.2-0.4-0.1-0.9,0.3-1.1c0.4-0.2,0.9-0.1,1.1,0.3C32.6,21,33,22.5,33,24C33,29,29,33,24,33z"/>
	</g>
</g>
</svg>
