<!-- Generator: Adobe Illustrator 25.1.0, SVG Export Plug-In  -->
<svg version="1.1" xmlns="http://www.w3.org/2000/svg" xmlns:xlink="http://www.w3.org/1999/xlink" x="0px" y="0px" width="48px"
	 height="48px" viewBox="0 0 48 48" style="overflow:visible;enable-background:new 0 0 48 48;" xml:space="preserve">
<style type="text/css">
	.st0{opacity:0;fill:#FFFFFF;}
	.st1{fill:#C1A833;}
</style>
<defs>
</defs>
<rect class="st0" width="48" height="48"/>
<g>
	<g>
		<path class="st1" d="M24,42.9c-0.3,0-0.5,0-0.8-0.1c0,0,0,0,0,0c-5.4-1.9-14.9-8.3-14.9-14.2V12c0-1.3,1-2.3,2.3-2.4
			c6.6-0.3,10.4-2.6,12-3.9c0.9-0.7,2.1-0.7,2.9,0c1.6,1.3,5.4,3.6,12,3.9c1.3,0.1,2.3,1.1,2.3,2.4v16.6c0,5.8-9.6,12.2-14.9,14.2
			C24.5,42.8,24.3,42.9,24,42.9z M23.8,41.2c0.2,0.1,0.3,0.1,0.5,0c5.5-2,13.9-8.1,13.9-12.7V12c0-0.4-0.3-0.8-0.8-0.8
			c-7.1-0.3-11.1-2.8-12.9-4.3c-0.3-0.2-0.7-0.2-1,0c-1.8,1.5-5.8,3.9-12.9,4.3c-0.4,0-0.8,0.4-0.8,0.8v16.6
			C9.9,33.2,18.2,39.2,23.8,41.2z"/>
	</g>
	<g>
		<path class="st1" d="M24,33.4c-5.2,0-9.4-4.2-9.4-9.4s4.2-9.4,9.4-9.4c1.8,0,3.6,0.5,5.2,1.5c0.4,0.2,0.5,0.7,0.2,1.1
			c-0.2,0.4-0.7,0.5-1.1,0.2c-1.3-0.8-2.8-1.3-4.3-1.3c-4.3,0-7.9,3.5-7.9,7.9s3.5,7.9,7.9,7.9c4.3,0,7.9-3.5,7.9-7.9
			c0-0.4,0-0.8-0.1-1.1C31.7,22.4,32,22,32.4,22c0.4-0.1,0.8,0.2,0.9,0.7c0.1,0.4,0.1,0.9,0.1,1.3C33.4,29.2,29.2,33.4,24,33.4z"/>
	</g>
	<g>
		<path class="st1" d="M23.6,27.5c-0.2,0-0.4-0.1-0.6-0.2L18.7,23c-0.3-0.3-0.3-0.8,0-1.1c0.3-0.3,0.8-0.3,1.1,0l3.8,3.8l8.1-8.1
			c0.3-0.3,0.8-0.3,1.1,0s0.3,0.8,0,1.1l-8.6,8.6C24,27.5,23.8,27.5,23.6,27.5z"/>
	</g>
</g>
</svg>
