<!-- Generator: Adobe Illustrator 25.1.0, SVG Export Plug-In  -->
<svg version="1.1" xmlns="http://www.w3.org/2000/svg" xmlns:xlink="http://www.w3.org/1999/xlink" x="0px" y="0px" width="48px"
	 height="48px" viewBox="0 0 48 48" style="overflow:visible;enable-background:new 0 0 48 48;" xml:space="preserve">
<style type="text/css">
	.st0{opacity:0;fill:#FFFFFF;}
	.st1{fill:#C1A833;}
</style>
<defs>
</defs>
<rect class="st0" width="48" height="48"/>
<g>
	<g>
		<g>
			<path class="st1" d="M19.8,39.1c-0.5,0-0.8-0.4-0.8-0.8V26.9L17,28.8c-0.3,0.3-0.9,0.3-1.2,0c-0.3-0.3-0.3-0.9,0-1.2l3.4-3.4
				c0.2-0.2,0.6-0.3,0.9-0.2c0.3,0.1,0.5,0.4,0.5,0.8v13.4C20.6,38.7,20.3,39.1,19.8,39.1z"/>
		</g>
		<g>
			<path class="st1" d="M23.2,29c-0.2,0-0.4-0.1-0.6-0.2l-3.4-3.4c-0.3-0.3-0.3-0.9,0-1.2s0.9-0.3,1.2,0l3.4,3.4
				c0.3,0.3,0.3,0.9,0,1.2C23.6,28.9,23.4,29,23.2,29z"/>
		</g>
	</g>
	<g>
		<g>
			<path class="st1" d="M28.2,42.4c-0.1,0-0.2,0-0.3-0.1c-0.3-0.1-0.5-0.4-0.5-0.8V28.2c0-0.5,0.4-0.8,0.8-0.8s0.8,0.4,0.8,0.8v11.4
				l1.9-1.9c0.3-0.3,0.9-0.3,1.2,0c0.3,0.3,0.3,0.9,0,1.2l-3.4,3.4C28.6,42.4,28.4,42.4,28.2,42.4z"/>
		</g>
		<g>
			<path class="st1" d="M28.2,42.4c-0.2,0-0.4-0.1-0.6-0.2l-3.4-3.4c-0.3-0.3-0.3-0.9,0-1.2c0.3-0.3,0.9-0.3,1.2,0l3.4,3.4
				c0.3,0.3,0.3,0.9,0,1.2C28.6,42.4,28.4,42.4,28.2,42.4z"/>
		</g>
	</g>
	<g>
		<g>
			<g>
				<path class="st1" d="M34.9,32.4h-0.8c-0.5,0-0.8-0.4-0.8-0.8s0.4-0.8,0.8-0.8h0.8c4.4,0,7.5-3.5,7.5-8.3c0-3.7-3.3-7.1-6.7-7.1
					c-1.4,0-2.6,0.4-3.5,1c-0.4,0.3-0.9,0.2-1.2-0.2c-0.3-0.4-0.2-0.9,0.2-1.2c1.3-0.9,2.8-1.4,4.5-1.4c4.4,0,8.4,4.2,8.4,8.8
					C44.1,28.2,40.2,32.4,34.9,32.4z"/>
			</g>
			<g>
				<path class="st1" d="M13.9,32.4h-1.8c-4.6,0-8.3-3.7-8.3-8.2c0-3.2,2.1-6.1,5.1-7.3c1.3-0.5,2.8-0.6,4.4-0.2l0.8,0.2
					c0.4,0.1,0.7,0.6,0.6,1c-0.1,0.4-0.6,0.7-1,0.6L13,18.3c-1.2-0.3-2.4-0.2-3.4,0.1c-2.4,0.9-4.1,3.2-4.1,5.7c0,3.6,3,6.5,6.6,6.5
					h1.8c0.5,0,0.8,0.4,0.8,0.8S14.4,32.4,13.9,32.4z"/>
			</g>
		</g>
		<g>
			<path class="st1" d="M13.9,18.6c-0.4,0-0.8-0.4-0.8-0.8c0-0.2,0-0.3,0-0.5c0-6.5,5.3-11.7,11.7-11.7c5.3,0,9.9,3.6,11.3,8.6
				c0.1,0.4-0.1,0.9-0.6,1c-0.4,0.1-0.9-0.1-1-0.6c-1.2-4.4-5.2-7.4-9.7-7.4c-5.5,0-10.1,4.5-10.1,10.1c0,0.1,0,0.3,0,0.4
				C14.8,18.2,14.4,18.5,13.9,18.6C14,18.6,14,18.6,13.9,18.6z"/>
		</g>
	</g>
</g>
</svg>
