<!-- Generator: Adobe Illustrator 25.1.0, SVG Export Plug-In  -->
<svg version="1.1" xmlns="http://www.w3.org/2000/svg" xmlns:xlink="http://www.w3.org/1999/xlink" x="0px" y="0px" width="48px"
	 height="48px" viewBox="0 0 48 48" style="overflow:visible;enable-background:new 0 0 48 48;" xml:space="preserve">
<style type="text/css">
	.st0{opacity:0;fill:#FFFFFF;}
	.st1{fill:#C1A833;}
</style>
<defs>
</defs>
<rect class="st0" width="48" height="48"/>
<g>
	<g>
		<path class="st1" d="M28.9,13.4h-9.8c-0.5,0-0.8-0.4-0.8-0.8V6.1c0-0.5,0.4-0.8,0.8-0.8h9.8c0.5,0,0.8,0.4,0.8,0.8v6.5
			C29.7,13.1,29.3,13.4,28.9,13.4z M19.9,11.8h8.1V6.9h-8.1V11.8z"/>
	</g>
	<g>
		<path class="st1" d="M24,16.7c-0.5,0-0.8-0.4-0.8-0.8v-3.3c0-0.5,0.4-0.8,0.8-0.8s0.8,0.4,0.8,0.8v3.3
			C24.8,16.3,24.5,16.7,24,16.7z"/>
	</g>
	<g>
		<path class="st1" d="M26.4,16.7h-4.9c-0.5,0-0.8-0.4-0.8-0.8s0.4-0.8,0.8-0.8h4.9c0.5,0,0.8,0.4,0.8,0.8S26.9,16.7,26.4,16.7z"/>
	</g>
	<g>
		<path class="st1" d="M15,39.5H5.3c-0.5,0-0.8-0.4-0.8-0.8v-6.5c0-0.5,0.4-0.8,0.8-0.8H15c0.5,0,0.8,0.4,0.8,0.8v6.5
			C15.9,39.1,15.5,39.5,15,39.5z M6.1,37.8h8.1V33H6.1V37.8z"/>
	</g>
	<g>
		<path class="st1" d="M10.2,42.7c-0.5,0-0.8-0.4-0.8-0.8v-3.3c0-0.5,0.4-0.8,0.8-0.8c0.5,0,0.8,0.4,0.8,0.8v3.3
			C11,42.4,10.6,42.7,10.2,42.7z"/>
	</g>
	<g>
		<path class="st1" d="M12.6,42.7H7.7c-0.5,0-0.8-0.4-0.8-0.8c0-0.5,0.4-0.8,0.8-0.8h4.9c0.5,0,0.8,0.4,0.8,0.8
			C13.4,42.4,13.1,42.7,12.6,42.7z"/>
	</g>
	<g>
		<path class="st1" d="M42.7,39.5H33c-0.5,0-0.8-0.4-0.8-0.8v-6.5c0-0.5,0.4-0.8,0.8-0.8h9.8c0.5,0,0.8,0.4,0.8,0.8v6.5
			C43.5,39.1,43.2,39.5,42.7,39.5z M33.8,37.8h8.1V33h-8.1V37.8z"/>
	</g>
	<g>
		<path class="st1" d="M37.8,42.7c-0.5,0-0.8-0.4-0.8-0.8v-3.3c0-0.5,0.4-0.8,0.8-0.8c0.5,0,0.8,0.4,0.8,0.8v3.3
			C38.7,42.4,38.3,42.7,37.8,42.7z"/>
	</g>
	<g>
		<path class="st1" d="M40.3,42.7h-4.9c-0.5,0-0.8-0.4-0.8-0.8c0-0.5,0.4-0.8,0.8-0.8h4.9c0.5,0,0.8,0.4,0.8,0.8
			C41.1,42.4,40.7,42.7,40.3,42.7z"/>
	</g>
	<g>
		<path class="st1" d="M28.9,39.5h-9.8c-0.5,0-0.8-0.4-0.8-0.8v-6.5c0-0.5,0.4-0.8,0.8-0.8h9.8c0.5,0,0.8,0.4,0.8,0.8v6.5
			C29.7,39.1,29.3,39.5,28.9,39.5z M19.9,37.8h8.1V33h-8.1V37.8z"/>
	</g>
	<g>
		<path class="st1" d="M24,42.7c-0.5,0-0.8-0.4-0.8-0.8v-3.3c0-0.5,0.4-0.8,0.8-0.8s0.8,0.4,0.8,0.8v3.3
			C24.8,42.4,24.5,42.7,24,42.7z"/>
	</g>
	<g>
		<path class="st1" d="M26.4,42.7h-4.9c-0.5,0-0.8-0.4-0.8-0.8c0-0.5,0.4-0.8,0.8-0.8h4.9c0.5,0,0.8,0.4,0.8,0.8
			C27.3,42.4,26.9,42.7,26.4,42.7z"/>
	</g>
	<g>
		<path class="st1" d="M10.2,30.5c-0.5,0-0.8-0.4-0.8-0.8V24c0-0.5,0.4-0.8,0.8-0.8h13v-4.9c0-0.5,0.4-0.8,0.8-0.8s0.8,0.4,0.8,0.8
			V24c0,0.5-0.4,0.8-0.8,0.8H11v4.9C11,30.1,10.6,30.5,10.2,30.5z"/>
	</g>
	<g>
		<path class="st1" d="M37.8,30.5c-0.5,0-0.8-0.4-0.8-0.8v-4.9H24.8v4.1c0,0.5-0.4,0.8-0.8,0.8s-0.8-0.4-0.8-0.8V24
			c0-0.5,0.4-0.8,0.8-0.8h13.8c0.5,0,0.8,0.4,0.8,0.8v5.7C38.7,30.1,38.3,30.5,37.8,30.5z"/>
	</g>
	<g>
		<circle class="st1" cx="24" cy="9.3" r="0.8"/>
	</g>
	<g>
		<circle class="st1" cx="10.2" cy="35.4" r="0.8"/>
	</g>
	<g>
		<circle class="st1" cx="24" cy="35.4" r="0.8"/>
	</g>
	<g>
		<circle class="st1" cx="37.8" cy="35.4" r="0.8"/>
	</g>
</g>
</svg>
