<!-- Generator: Adobe Illustrator 25.1.0, SVG Export Plug-In  -->
<svg version="1.1" xmlns="http://www.w3.org/2000/svg" xmlns:xlink="http://www.w3.org/1999/xlink" x="0px" y="0px" width="48px"
	 height="48px" viewBox="0 0 48 48" style="overflow:visible;enable-background:new 0 0 48 48;" xml:space="preserve">
<style type="text/css">
	.st0{opacity:0;fill:#FFFFFF;}
	.st1{fill:#C1A833;}
</style>
<defs>
</defs>
<rect class="st0" width="48" height="48"/>
<g>
	<g>
		<path class="st1" d="M39.3,37.3c-0.2,0-0.5-0.1-0.6-0.3L26,23.7c-0.2-0.2-0.2-0.4-0.2-0.6V4.2c0-0.2,0.1-0.5,0.3-0.6
			c0.2-0.2,0.4-0.3,0.6-0.2c10.1,0.4,18,9.5,18,20.6c0,4.9-1.7,9.8-4.7,13C39.8,37.2,39.6,37.3,39.3,37.3
			C39.3,37.3,39.3,37.3,39.3,37.3z M27.4,22.8l11.8,12.4c2.3-2.9,3.6-7.1,3.6-11.2c0-9.9-6.7-17.9-15.5-18.8V22.8z"/>
	</g>
	<g>
		<path class="st1" d="M23.8,44.6c-10,0-19.9-9.2-20.4-18.8c0-0.2,0.1-0.5,0.2-0.6C3.8,25,4,24.9,4.2,24.9h18.9
			c0.2,0,0.4,0.1,0.6,0.3l13.4,13.5c0.2,0.2,0.3,0.4,0.2,0.6c0,0.2-0.1,0.5-0.3,0.6C33.9,42.8,28.7,44.6,23.8,44.6z M5.2,26.6
			c1,8.5,9.8,16.3,18.6,16.3c4.1,0,8.5-1.4,11.5-3.7L22.8,26.6H5.2z"/>
	</g>
	<g>
		<path class="st1" d="M8.5,24c-0.2,0-0.4-0.1-0.6-0.3l-3.4-3.4c-0.3-0.3-0.3-0.9,0-1.2c0.3-0.3,0.9-0.3,1.2,0l3.4,3.4
			c0.3,0.3,0.3,0.9,0,1.2C9,23.9,8.8,24,8.5,24z"/>
	</g>
	<g>
		<path class="st1" d="M13.3,23.5c-0.2,0-0.4-0.1-0.6-0.3L6,16.5c-0.3-0.3-0.3-0.9,0-1.2c0.3-0.3,0.9-0.3,1.2,0l6.7,6.7
			c0.3,0.3,0.3,0.9,0,1.2C13.8,23.4,13.6,23.5,13.3,23.5z"/>
	</g>
	<g>
		<path class="st1" d="M19,23.3c-0.2,0-0.4-0.1-0.6-0.3L7.5,12.3c-0.3-0.3-0.3-0.9,0-1.2c0.3-0.3,0.9-0.3,1.2,0l10.8,10.8
			c0.3,0.3,0.3,0.9,0,1.2C19.4,23.2,19.2,23.3,19,23.3z"/>
	</g>
	<g>
		<path class="st1" d="M22.3,20.6c-0.2,0-0.4-0.1-0.6-0.3L10.5,9.1c-0.3-0.3-0.3-0.9,0-1.2c0.3-0.3,0.9-0.3,1.2,0l11.2,11.2
			c0.3,0.3,0.3,0.9,0,1.2C22.7,20.5,22.5,20.6,22.3,20.6z"/>
	</g>
	<g>
		<path class="st1" d="M22.6,15.2c-0.2,0-0.4-0.1-0.6-0.3l-7.4-7.4c-0.3-0.3-0.3-0.9,0-1.2c0.3-0.3,0.9-0.3,1.2,0l7.4,7.4
			c0.3,0.3,0.3,0.9,0,1.2C23.1,15.2,22.8,15.2,22.6,15.2z"/>
	</g>
	<g>
		<path class="st1" d="M23.1,10.3c-0.2,0-0.4-0.1-0.6-0.3l-4.3-4.3c-0.3-0.3-0.3-0.9,0-1.2c0.3-0.3,0.9-0.3,1.2,0l4.3,4.3
			c0.3,0.3,0.3,0.9,0,1.2C23.6,10.2,23.4,10.3,23.1,10.3z"/>
	</g>
</g>
</svg>
