<!-- Generator: Adobe Illustrator 25.1.0, SVG Export Plug-In  -->
<svg version="1.1" xmlns="http://www.w3.org/2000/svg" xmlns:xlink="http://www.w3.org/1999/xlink" x="0px" y="0px" width="48px"
	 height="48px" viewBox="0 0 48 48" style="overflow:visible;enable-background:new 0 0 48 48;" xml:space="preserve">
<style type="text/css">
	.st0{opacity:0;fill:#FFFFFF;}
	.st1{fill:#C1A833;}
</style>
<defs>
</defs>
<rect class="st0" width="48" height="48"/>
<g>
	<g>
		<g>
			<path class="st1" d="M41.2,37.1H6.8c-1.4,0-2.5-1.1-2.5-2.5V8.5C4.4,7.1,5.5,6,6.8,6h34.3c1.4,0,2.5,1.1,2.5,2.5v26.1
				C43.6,36,42.5,37.1,41.2,37.1z M6.8,7.7C6.4,7.7,6,8,6,8.5v26.1c0,0.5,0.4,0.8,0.8,0.8h34.3c0.5,0,0.8-0.4,0.8-0.8V8.5
				c0-0.5-0.4-0.8-0.8-0.8H6.8z"/>
		</g>
		<g>
			<path class="st1" d="M33.8,42H14.2c-0.5,0-0.8-0.4-0.8-0.8c0-0.5,0.4-0.8,0.8-0.8h19.6c0.5,0,0.8,0.4,0.8,0.8
				C34.6,41.6,34.3,42,33.8,42z"/>
		</g>
		<g>
			<path class="st1" d="M18.3,42L18.3,42c-0.5,0-0.8-0.4-0.8-0.8l0-4.9c0-0.5,0.4-0.8,0.8-0.8l0,0c0.5,0,0.8,0.4,0.8,0.8l0,4.9
				C19.1,41.6,18.7,42,18.3,42z"/>
		</g>
		<g>
			<path class="st1" d="M29.7,42c-0.5,0-0.8-0.4-0.8-0.8v-4.9c0-0.5,0.4-0.8,0.8-0.8s0.8,0.4,0.8,0.8v4.9C30.5,41.6,30.2,42,29.7,42
				z"/>
		</g>
		<g>
			<path class="st1" d="M42.8,32.2H5.2c-0.5,0-0.8-0.4-0.8-0.8s0.4-0.8,0.8-0.8h37.6c0.5,0,0.8,0.4,0.8,0.8S43.2,32.2,42.8,32.2z"/>
		</g>
	</g>
	<g>
		<path class="st1" d="M10.9,18.3c-0.5,0-0.8-0.4-0.8-0.8v-6.5c0-0.5,0.4-0.8,0.8-0.8c0.5,0,0.8,0.4,0.8,0.8v6.5
			C11.7,17.9,11.4,18.3,10.9,18.3z"/>
	</g>
	<g>
		<path class="st1" d="M17.5,28.9c-0.5,0-0.8-0.4-0.8-0.8v-6.5c0-0.5,0.4-0.8,0.8-0.8c0.5,0,0.8,0.4,0.8,0.8v6.5
			C18.3,28.5,17.9,28.9,17.5,28.9z"/>
	</g>
	<g>
		<path class="st1" d="M24,18.3c-0.5,0-0.8-0.4-0.8-0.8v-6.5c0-0.5,0.4-0.8,0.8-0.8s0.8,0.4,0.8,0.8v6.5
			C24.8,17.9,24.5,18.3,24,18.3z"/>
	</g>
	<g>
		<path class="st1" d="M30.5,28.9c-0.5,0-0.8-0.4-0.8-0.8v-6.5c0-0.5,0.4-0.8,0.8-0.8c0.5,0,0.8,0.4,0.8,0.8v6.5
			C31.4,28.5,31,28.9,30.5,28.9z"/>
	</g>
	<g>
		<path class="st1" d="M37.1,18.3c-0.5,0-0.8-0.4-0.8-0.8v-6.5c0-0.5,0.4-0.8,0.8-0.8s0.8,0.4,0.8,0.8v6.5
			C37.9,17.9,37.5,18.3,37.1,18.3z"/>
	</g>
	<g>
		<path class="st1" d="M17.5,18.3c-1.8,0-3.3-1.5-3.3-3.3v-1.6c0-1.8,1.5-3.3,3.3-3.3s3.3,1.5,3.3,3.3V15
			C20.7,16.8,19.3,18.3,17.5,18.3z M17.5,11.7c-0.9,0-1.6,0.7-1.6,1.6V15c0,0.9,0.7,1.6,1.6,1.6s1.6-0.7,1.6-1.6v-1.6
			C19.1,12.5,18.4,11.7,17.5,11.7z"/>
	</g>
	<g>
		<path class="st1" d="M30.5,18.3c-1.8,0-3.3-1.5-3.3-3.3v-1.6c0-1.8,1.5-3.3,3.3-3.3s3.3,1.5,3.3,3.3V15
			C33.8,16.8,32.3,18.3,30.5,18.3z M30.5,11.7c-0.9,0-1.6,0.7-1.6,1.6V15c0,0.9,0.7,1.6,1.6,1.6s1.6-0.7,1.6-1.6v-1.6
			C32.2,12.5,31.4,11.7,30.5,11.7z"/>
	</g>
	<g>
		<path class="st1" d="M37.1,28.9c-1.8,0-3.3-1.5-3.3-3.3V24c0-1.8,1.5-3.3,3.3-3.3c1.8,0,3.3,1.5,3.3,3.3v1.6
			C40.3,27.4,38.9,28.9,37.1,28.9z M37.1,22.4c-0.9,0-1.6,0.7-1.6,1.6v1.6c0,0.9,0.7,1.6,1.6,1.6c0.9,0,1.6-0.7,1.6-1.6V24
			C38.7,23.1,38,22.4,37.1,22.4z"/>
	</g>
	<g>
		<path class="st1" d="M24,28.9c-1.8,0-3.3-1.5-3.3-3.3V24c0-1.8,1.5-3.3,3.3-3.3s3.3,1.5,3.3,3.3v1.6C27.3,27.4,25.8,28.9,24,28.9z
			 M24,22.4c-0.9,0-1.6,0.7-1.6,1.6v1.6c0,0.9,0.7,1.6,1.6,1.6s1.6-0.7,1.6-1.6V24C25.6,23.1,24.9,22.4,24,22.4z"/>
	</g>
	<g>
		<path class="st1" d="M10.9,28.9c-1.8,0-3.3-1.5-3.3-3.3V24c0-1.8,1.5-3.3,3.3-3.3s3.3,1.5,3.3,3.3v1.6
			C14.2,27.4,12.7,28.9,10.9,28.9z M10.9,22.4c-0.9,0-1.6,0.7-1.6,1.6v1.6c0,0.9,0.7,1.6,1.6,1.6s1.6-0.7,1.6-1.6V24
			C12.6,23.1,11.8,22.4,10.9,22.4z"/>
	</g>
</g>
</svg>
