<!-- Generator: Adobe Illustrator 25.1.0, SVG Export Plug-In  -->
<svg version="1.1" xmlns="http://www.w3.org/2000/svg" xmlns:xlink="http://www.w3.org/1999/xlink" x="0px" y="0px" width="48px"
	 height="48px" viewBox="0 0 48 48" style="overflow:visible;enable-background:new 0 0 48 48;" xml:space="preserve">
<style type="text/css">
	.st0{opacity:0;fill:#FFFFFF;}
	.st1{fill:#C1A833;}
</style>
<defs>
</defs>
<rect class="st0" width="48" height="48"/>
<g>
	<g>
		<path class="st1" d="M24,44.8c-0.3,0-0.6,0-0.8-0.1v0C17.2,42.6,6.6,35.5,6.6,29V10.7c0-1.4,1.1-2.5,2.4-2.6
			c7.4-0.3,11.5-2.9,13.3-4.3c0.9-0.8,2.3-0.8,3.2,0c1.8,1.5,5.9,4,13.3,4.3c1.4,0.1,2.4,1.2,2.4,2.6V29c0,6.4-10.6,13.5-16.5,15.6
			C24.6,44.8,24.3,44.8,24,44.8z M23.7,43.2c0.2,0.1,0.4,0.1,0.6,0c3.1-1.1,6.9-3.4,9.9-5.8c3.6-3,5.6-5.9,5.6-8.3V10.7
			c0-0.5-0.4-0.9-0.9-1C31,9.3,26.5,6.6,24.6,5c-0.3-0.3-0.8-0.3-1.1,0c-2,1.6-6.4,4.3-14.3,4.7c-0.5,0-0.9,0.4-0.9,1V29
			c0,2.4,2,5.3,5.6,8.3C16.8,39.8,20.7,42.1,23.7,43.2L23.7,43.2z"/>
	</g>
	<g>
		<g>
			<path class="st1" d="M29.2,34.4H18.8c-2.4,0-4.3-1.9-4.3-4.3v-8.7c0-0.9,0.8-1.7,1.7-1.7h15.7c0.9,0,1.7,0.8,1.7,1.7v8.7
				C33.5,32.5,31.6,34.4,29.2,34.4z M16.2,21.3C16.1,21.3,16.1,21.4,16.2,21.3l-0.1,8.8c0,1.5,1.2,2.7,2.7,2.7h10.4
				c1.5,0,2.7-1.2,2.7-2.7v-8.7c0,0,0-0.1-0.1-0.1H16.2z"/>
		</g>
		<g>
			<path class="st1" d="M30.1,21.3c-0.4,0-0.8-0.4-0.8-0.8v-1.7c0-2.9-2.4-5.3-5.3-5.3s-5.3,2.4-5.3,5.3v1.7c0,0.4-0.4,0.8-0.8,0.8
				s-0.8-0.4-0.8-0.8v-1.7c0-3.8,3.1-6.9,6.9-6.9s6.9,3.1,6.9,6.9v1.7C30.9,21,30.5,21.3,30.1,21.3z"/>
		</g>
		<g>
			<path class="st1" d="M24,28.3c-1.4,0-2.6-1.1-2.6-2.6s1.1-2.6,2.6-2.6s2.6,1.1,2.6,2.6S25.4,28.3,24,28.3z M24,24.8
				c-0.5,0-0.9,0.4-0.9,0.9s0.4,0.9,0.9,0.9s0.9-0.4,0.9-0.9S24.5,24.8,24,24.8z"/>
		</g>
		<g>
			<path class="st1" d="M24,30.9c-0.4,0-0.8-0.4-0.8-0.8v-2.6c0-0.4,0.4-0.8,0.8-0.8s0.8,0.4,0.8,0.8v2.6
				C24.8,30.5,24.4,30.9,24,30.9z"/>
		</g>
	</g>
</g>
</svg>
