<!-- Generator: Adobe Illustrator 25.1.0, SVG Export Plug-In  -->
<svg version="1.1" xmlns="http://www.w3.org/2000/svg" xmlns:xlink="http://www.w3.org/1999/xlink" x="0px" y="0px" width="48px"
	 height="48px" viewBox="0 0 48 48" style="overflow:visible;enable-background:new 0 0 48 48;" xml:space="preserve">
<style type="text/css">
	.st0{opacity:0;fill:#FFFFFF;}
	.st1{fill:#C1A833;}
</style>
<defs>
</defs>
<rect class="st0" width="48" height="48"/>
<g>
	<g>
		<path class="st1" d="M28.6,18.7H13.4c-0.4,0-0.8-0.3-0.8-0.8s0.3-0.8,0.8-0.8h15.2c0.4,0,0.8,0.3,0.8,0.8S29,18.7,28.6,18.7z"/>
	</g>
	<g>
		<path class="st1" d="M28.6,14.9H13.4c-0.4,0-0.8-0.3-0.8-0.8c0-0.4,0.3-0.8,0.8-0.8h15.2c0.4,0,0.8,0.3,0.8,0.8
			C29.3,14.5,29,14.9,28.6,14.9z"/>
	</g>
	<g>
		<path class="st1" d="M28.6,22.5H13.4c-0.4,0-0.8-0.3-0.8-0.8c0-0.4,0.3-0.8,0.8-0.8h15.2c0.4,0,0.8,0.3,0.8,0.8
			C29.3,22.1,29,22.5,28.6,22.5z"/>
	</g>
	<g>
		<path class="st1" d="M28.6,26.3H13.4c-0.4,0-0.8-0.3-0.8-0.8c0-0.4,0.3-0.8,0.8-0.8h15.2c0.4,0,0.8,0.3,0.8,0.8
			C29.3,25.9,29,26.3,28.6,26.3z"/>
	</g>
	<g>
		<path class="st1" d="M22.5,30.1h-9.2c-0.4,0-0.8-0.3-0.8-0.8s0.3-0.8,0.8-0.8h9.2c0.4,0,0.8,0.3,0.8,0.8S23,30.1,22.5,30.1z"/>
	</g>
	<g>
		<path class="st1" d="M39.2,11.8h-3c-0.4,0-0.8-0.3-0.8-0.8s0.3-0.8,0.8-0.8h2.3V9.6c0-1.3-1-2.3-2.3-2.3s-2.3,1-2.3,2.3
			c0,0.4-0.3,0.8-0.8,0.8c-0.4,0-0.8-0.3-0.8-0.8c0-2.1,1.7-3.8,3.8-3.8S40,7.5,40,9.6v1.5C40,11.5,39.6,11.8,39.2,11.8z"/>
	</g>
	<g>
		<path class="st1" d="M33.1,42.2c-0.2,0-0.4-0.1-0.5-0.2l-2.5-2.5L27.6,42c-0.3,0.3-0.8,0.3-1.1,0L24,39.5L21.5,42
			c-0.3,0.3-0.8,0.3-1.1,0l-2.5-2.5L15.4,42c-0.3,0.3-0.8,0.3-1.1,0l-2.5-2.5L9.3,42c-0.2,0.2-0.5,0.3-0.8,0.2
			C8.2,42.1,8,41.8,8,41.5V9.6c0-2.1,1.7-3.8,3.8-3.8h24.3c0.4,0,0.8,0.3,0.8,0.8c0,0.4-0.3,0.8-0.8,0.8H11.8c-1.3,0-2.3,1-2.3,2.3
			v30.1l1.7-1.7c0.3-0.3,0.8-0.3,1.1,0l2.5,2.5l2.5-2.5c0.3-0.3,0.8-0.3,1.1,0l2.5,2.5l2.5-2.5c0.3-0.3,0.8-0.3,1.1,0l2.5,2.5
			l2.5-2.5c0.3-0.3,0.8-0.3,1.1,0l1.7,1.7V9.6c0-0.4,0.3-0.8,0.8-0.8c0.4,0,0.8,0.3,0.8,0.8v31.9c0,0.3-0.2,0.6-0.5,0.7
			C33.3,42.2,33.2,42.2,33.1,42.2z"/>
	</g>
</g>
</svg>
