<!-- Generator: Adobe Illustrator 25.1.0, SVG Export Plug-In  -->
<svg version="1.1" xmlns="http://www.w3.org/2000/svg" xmlns:xlink="http://www.w3.org/1999/xlink" x="0px" y="0px" width="48px"
	 height="48px" viewBox="0 0 48 48" style="overflow:visible;enable-background:new 0 0 48 48;" xml:space="preserve">
<style type="text/css">
	.st0{opacity:0;fill:#FFFFFF;}
	.st1{fill:#C1A833;}
</style>
<defs>
</defs>
<rect class="st0" width="48" height="48"/>
<g>
	<g>
		<g>
			<path class="st1" d="M38.8,41.1h-9.3c-2.1,0-3.9-1.7-3.9-3.9v-7.8c0-0.9,0.7-1.6,1.6-1.6h14c0.9,0,1.6,0.7,1.6,1.6v7.8
				C42.7,39.4,40.9,41.1,38.8,41.1z M27.1,29.4v7.8c0,1.3,1,2.3,2.3,2.3h9.3c1.3,0,2.3-1,2.3-2.3v-7.8H27.1z"/>
		</g>
		<g>
			<path class="st1" d="M39.5,29.4c-0.4,0-0.8-0.3-0.8-0.8v-1.6c0-2.6-2.1-4.7-4.7-4.7s-4.7,2.1-4.7,4.7v1.6c0,0.4-0.3,0.8-0.8,0.8
				c-0.4,0-0.8-0.3-0.8-0.8v-1.6c0-3.4,2.8-6.2,6.2-6.2s6.2,2.8,6.2,6.2v1.6C40.3,29.1,40,29.4,39.5,29.4z"/>
		</g>
		<g>
			<path class="st1" d="M34.1,35.7c-1.3,0-2.3-1-2.3-2.3c0-1.3,1-2.3,2.3-2.3s2.3,1,2.3,2.3C36.4,34.6,35.4,35.7,34.1,35.7z
				 M34.1,32.6c-0.4,0-0.8,0.3-0.8,0.8c0,0.4,0.3,0.8,0.8,0.8s0.8-0.3,0.8-0.8C34.9,32.9,34.5,32.6,34.1,32.6z"/>
		</g>
		<g>
			<path class="st1" d="M34.1,38c-0.4,0-0.8-0.3-0.8-0.8v-2.3c0-0.4,0.3-0.8,0.8-0.8s0.8,0.3,0.8,0.8v2.3C34.9,37.6,34.5,38,34.1,38
				z"/>
		</g>
	</g>
	<g>
		<g>
			<path class="st1" d="M23.6,41.1H9.2c-2.1,0-3.9-1.7-3.9-3.9V10.8c0-2.1,1.7-3.9,3.9-3.9h29.5c2.1,0,3.9,1.7,3.9,3.9v11.7
				c0,0.4-0.3,0.8-0.8,0.8s-0.8-0.3-0.8-0.8V10.8c0-1.3-1-2.3-2.3-2.3H9.2c-1.3,0-2.3,1-2.3,2.3v26.4c0,1.3,1,2.3,2.3,2.3h14.4
				c0.4,0,0.8,0.3,0.8,0.8C24.4,40.8,24,41.1,23.6,41.1z"/>
		</g>
		<g>
			<path class="st1" d="M41.9,14.7H6.1c-0.4,0-0.8-0.3-0.8-0.8c0-0.4,0.3-0.8,0.8-0.8h35.8c0.4,0,0.8,0.3,0.8,0.8
				C42.7,14.3,42.3,14.7,41.9,14.7z"/>
		</g>
		<g>
			<circle class="st1" cx="37.2" cy="10.8" r="0.8"/>
		</g>
		<g>
			<circle class="st1" cx="34.1" cy="10.8" r="0.8"/>
		</g>
		<g>
			<circle class="st1" cx="31" cy="10.8" r="0.8"/>
		</g>
		<g>
			<path class="st1" d="M23.2,20.9H10.8c-0.4,0-0.8-0.3-0.8-0.8s0.3-0.8,0.8-0.8h12.4c0.4,0,0.8,0.3,0.8,0.8S23.7,20.9,23.2,20.9z"
				/>
		</g>
		<g>
			<path class="st1" d="M23.2,25.6H10.8c-0.4,0-0.8-0.3-0.8-0.8c0-0.4,0.3-0.8,0.8-0.8h12.4c0.4,0,0.8,0.3,0.8,0.8
				C24,25.2,23.7,25.6,23.2,25.6z"/>
		</g>
		<g>
			<path class="st1" d="M21.7,30.2H10.8c-0.4,0-0.8-0.3-0.8-0.8s0.3-0.8,0.8-0.8h10.9c0.4,0,0.8,0.3,0.8,0.8S22.1,30.2,21.7,30.2z"
				/>
		</g>
		<g>
			<path class="st1" d="M21.7,34.9H10.8c-0.4,0-0.8-0.3-0.8-0.8c0-0.4,0.3-0.8,0.8-0.8h10.9c0.4,0,0.8,0.3,0.8,0.8
				C22.4,34.5,22.1,34.9,21.7,34.9z"/>
		</g>
	</g>
</g>
</svg>
