<!-- Generator: Adobe Illustrator 25.1.0, SVG Export Plug-In  -->
<svg version="1.1" xmlns="http://www.w3.org/2000/svg" xmlns:xlink="http://www.w3.org/1999/xlink" x="0px" y="0px" width="48px"
	 height="48px" viewBox="0 0 48 48" style="overflow:visible;enable-background:new 0 0 48 48;" xml:space="preserve">
<style type="text/css">
	.st0{opacity:0;fill:#FFFFFF;}
	.st1{fill:#C1A833;}
</style>
<defs>
</defs>
<rect class="st0" width="48" height="48"/>
<g>
	<g>
		<path class="st1" d="M16.8,38.9c-0.2,0-0.4-0.1-0.6-0.2c-0.3-0.3-0.3-0.9,0-1.2l2.1-2.1c0.3-0.3,1.2-1.1,2.3-1.1h10.2
			c1.1,0,1.4-0.2,1.8-0.5c0.1-0.1,0.2-0.1,0.3-0.2l7.7-6c0.6-0.6,1.3-1.2,1.3-1.8c0-0.5-0.4-1.2-1-1.5c-0.6-0.3-1.2-0.1-1.8,0.4
			L32.3,30c-0.7,0.5-1.5,0.8-2.3,0.8H19.8c-0.5,0-0.8-0.4-0.8-0.8c0-0.5,0.4-0.8,0.8-0.8H30c0.5,0,0.9-0.2,1.3-0.4l6.6-5.3
			c1.1-0.9,2.4-1.2,3.6-0.6c1.2,0.5,2,1.8,2,3c0,1.4-1,2.3-1.9,3.1l-0.1,0.1l-7.7,6c0,0-0.1,0-0.1,0.1c-0.1,0-0.1,0.1-0.2,0.1
			c-0.4,0.3-1.1,0.8-2.8,0.8H20.6c-0.3,0-0.7,0.2-1.1,0.6l-2.1,2.1C17.2,38.8,17,38.9,16.8,38.9z"/>
	</g>
	<g>
		<path class="st1" d="M9.6,31.6c-0.2,0-0.4-0.1-0.6-0.2c-0.3-0.3-0.3-0.9,0-1.2l4.2-4.2c0.7-0.7,2.2-1.9,4-1.9h11.5
			c1.3,0,2.5,0.8,3.1,2c0.4,0.9,0.4,1.9,0,2.8c-0.5,1.2-1.8,2-3.1,2h-8.1c-0.5,0-0.8-0.4-0.8-0.8c0-0.5,0.4-0.8,0.8-0.8h8.1
			c0.7,0,1.3-0.4,1.5-1c0.2-0.4,0.2-1,0-1.4c-0.3-0.6-0.9-1-1.5-1H17.2c-0.9,0-1.9,0.5-2.8,1.4l-4.2,4.2C10,31.6,9.8,31.6,9.6,31.6z
			"/>
	</g>
	<g>
		<path class="st1" d="M16.4,43.5c-0.2,0-0.4-0.1-0.6-0.2c-0.3-0.3-0.3-0.9,0-1.2l1.9-1.9l-9.8-9.8l-1.9,1.9c-0.3,0.3-0.9,0.3-1.2,0
			c-0.3-0.3-0.3-0.9,0-1.2l2.5-2.5c0.3-0.3,0.9-0.3,1.2,0l11,11c0.3,0.3,0.3,0.9,0,1.2L17,43.3C16.8,43.4,16.6,43.5,16.4,43.5z"/>
	</g>
	<g>
		<path class="st1" d="M18.9,25.7c-0.5,0-0.8-0.4-0.8-0.8V8.7c0-0.5,0.4-0.8,0.8-0.8H24c0.5,0,0.8,0.4,0.8,0.8S24.5,9.6,24,9.6h-4.2
			v15.3C19.8,25.3,19.4,25.7,18.9,25.7z"/>
	</g>
	<g>
		<path class="st1" d="M24,25.7c-0.5,0-0.8-0.4-0.8-0.8V5.3c0-0.5,0.4-0.8,0.8-0.8h5.1c0.5,0,0.8,0.4,0.8,0.8v6.8
			c0,0.5-0.4,0.8-0.8,0.8c-0.5,0-0.8-0.4-0.8-0.8V6.2h-3.4v18.7C24.8,25.3,24.5,25.7,24,25.7z"/>
	</g>
	<g>
		<path class="st1" d="M29.1,25.7c-0.5,0-0.8-0.4-0.8-0.8V12.1c0-0.5,0.4-0.8,0.8-0.8h5.1c0.5,0,0.8,0.4,0.8,0.8V24
			c0,0.5-0.4,0.8-0.8,0.8s-0.8-0.4-0.8-0.8V13h-3.4v11.9C29.9,25.3,29.6,25.7,29.1,25.7z"/>
	</g>
</g>
</svg>
