<!-- Generator: Adobe Illustrator 25.1.0, SVG Export Plug-In  -->
<svg version="1.1" xmlns="http://www.w3.org/2000/svg" xmlns:xlink="http://www.w3.org/1999/xlink" x="0px" y="0px" width="48px"
	 height="48px" viewBox="0 0 48 48" style="overflow:visible;enable-background:new 0 0 48 48;" xml:space="preserve">
<style type="text/css">
	.st0{opacity:0;fill:#FFFFFF;}
	.st1{fill:#C1A833;}
</style>
<defs>
</defs>
<rect class="st0" width="48" height="48"/>
<g>
	<g>
		<g>
			<path class="st1" d="M40.6,33.1c-0.5,0-0.8-0.4-0.8-0.8V11.6c0-0.5-0.4-0.8-0.8-0.8H9.1c-0.5,0-0.8,0.4-0.8,0.8v20.7
				c0,0.5-0.4,0.8-0.8,0.8c-0.5,0-0.8-0.4-0.8-0.8V11.6c0-1.4,1.1-2.5,2.5-2.5h29.8c1.4,0,2.5,1.1,2.5,2.5v20.7
				C41.4,32.7,41,33.1,40.6,33.1z"/>
		</g>
		<g>
			<path class="st1" d="M29.8,35.6H18.2c-0.5,0-0.8-0.4-0.8-0.8s0.4-0.8,0.8-0.8h11.6c0.5,0,0.8,0.4,0.8,0.8S30.3,35.6,29.8,35.6z"
				/>
		</g>
		<g>
			<path class="st1" d="M38.9,38.9H9.1c-2.9,0-5-4-5-6.6c0-0.5,0.4-0.8,0.8-0.8h10.8c0.5,0,0.8,0.4,0.8,0.8s-0.4,0.8-0.8,0.8H5.8
				c0.3,1.9,1.8,4.1,3.2,4.1h29.8c1.4,0,2.9-2.2,3.2-4.1h-9.9c-0.5,0-0.8-0.4-0.8-0.8s0.4-0.8,0.8-0.8h10.8c0.5,0,0.8,0.4,0.8,0.8
				C43.9,35,41.8,38.9,38.9,38.9z"/>
		</g>
	</g>
	<g>
		<path class="st1" d="M14.9,29.8h-3.3c-0.5,0-0.8-0.4-0.8-0.8v-6.6c0-0.5,0.4-0.8,0.8-0.8h3.3c0.5,0,0.8,0.4,0.8,0.8V29
			C15.7,29.4,15.3,29.8,14.9,29.8z M12.4,28.1h1.7v-5h-1.7V28.1z"/>
	</g>
	<g>
		<path class="st1" d="M21.5,29.8h-3.3c-0.5,0-0.8-0.4-0.8-0.8v-9.1c0-0.5,0.4-0.8,0.8-0.8h3.3c0.5,0,0.8,0.4,0.8,0.8V29
			C22.3,29.4,22,29.8,21.5,29.8z M19,28.1h1.7v-7.5H19V28.1z"/>
	</g>
	<g>
		<path class="st1" d="M28.1,29.8h-3.3c-0.5,0-0.8-0.4-0.8-0.8V17.4c0-0.5,0.4-0.8,0.8-0.8h3.3c0.5,0,0.8,0.4,0.8,0.8V29
			C29,29.4,28.6,29.8,28.1,29.8z M25.7,28.1h1.7v-9.9h-1.7V28.1z"/>
	</g>
	<g>
		<path class="st1" d="M36.4,21.5h-4.1c-0.5,0-0.8-0.4-0.8-0.8c0-0.5,0.4-0.8,0.8-0.8h4.1c0.5,0,0.8,0.4,0.8,0.8
			C37.3,21.1,36.9,21.5,36.4,21.5z"/>
	</g>
	<g>
		<path class="st1" d="M36.4,24.8h-4.1c-0.5,0-0.8-0.4-0.8-0.8s0.4-0.8,0.8-0.8h4.1c0.5,0,0.8,0.4,0.8,0.8S36.9,24.8,36.4,24.8z"/>
	</g>
	<g>
		<path class="st1" d="M36.4,18.2h-4.1c-0.5,0-0.8-0.4-0.8-0.8c0-0.5,0.4-0.8,0.8-0.8h4.1c0.5,0,0.8,0.4,0.8,0.8
			C37.3,17.8,36.9,18.2,36.4,18.2z"/>
	</g>
	<g>
		<circle class="st1" cx="11.6" cy="14.1" r="0.8"/>
	</g>
	<g>
		<circle class="st1" cx="14.9" cy="14.1" r="0.8"/>
	</g>
	<g>
		<circle class="st1" cx="11.6" cy="17.4" r="0.8"/>
	</g>
	<g>
		<circle class="st1" cx="14.9" cy="17.4" r="0.8"/>
	</g>
	<g>
		<circle class="st1" cx="18.2" cy="14.1" r="0.8"/>
	</g>
</g>
</svg>
