<!-- Generator: Adobe Illustrator 25.1.0, SVG Export Plug-In  -->
<svg version="1.1" xmlns="http://www.w3.org/2000/svg" xmlns:xlink="http://www.w3.org/1999/xlink" x="0px" y="0px" width="48px"
	 height="48px" viewBox="0 0 48 48" style="overflow:visible;enable-background:new 0 0 48 48;" xml:space="preserve">
<style type="text/css">
	.st0{opacity:0;fill:#FFFFFF;}
	.st1{fill:#C1A833;}
</style>
<defs>
</defs>
<rect class="st0" width="48" height="48"/>
<g>
	<g>
		<g>
			<path class="st1" d="M39.6,43.7h-9.9c-2.3,0-4.1-1.8-4.1-4.1v-8.2c0-0.9,0.7-1.6,1.6-1.6h14.8c0.9,0,1.6,0.7,1.6,1.6v8.2
				C43.7,41.9,41.9,43.7,39.6,43.7z M27.3,31.4v8.2c0,1.4,1.1,2.5,2.5,2.5h9.9c1.4,0,2.5-1.1,2.5-2.5v-8.2H27.3z"/>
		</g>
		<g>
			<path class="st1" d="M40.5,31.4c-0.5,0-0.8-0.4-0.8-0.8v-1.6c0-2.7-2.2-4.9-4.9-4.9c-2.7,0-4.9,2.2-4.9,4.9v1.6
				c0,0.5-0.4,0.8-0.8,0.8s-0.8-0.4-0.8-0.8v-1.6c0-3.6,3-6.6,6.6-6.6c3.6,0,6.6,3,6.6,6.6v1.6C41.3,31,40.9,31.4,40.5,31.4z"/>
		</g>
		<g>
			<path class="st1" d="M34.7,38c-1.4,0-2.5-1.1-2.5-2.5c0-1.4,1.1-2.5,2.5-2.5c1.4,0,2.5,1.1,2.5,2.5C37.2,36.9,36.1,38,34.7,38z
				 M34.7,34.7c-0.5,0-0.8,0.4-0.8,0.8c0,0.5,0.4,0.8,0.8,0.8c0.5,0,0.8-0.4,0.8-0.8C35.5,35.1,35.1,34.7,34.7,34.7z"/>
		</g>
		<g>
			<path class="st1" d="M34.7,40.5c-0.5,0-0.8-0.4-0.8-0.8v-2.5c0-0.5,0.4-0.8,0.8-0.8c0.5,0,0.8,0.4,0.8,0.8v2.5
				C35.5,40.1,35.1,40.5,34.7,40.5z"/>
		</g>
	</g>
	<g>
		<circle class="st1" cx="30.6" cy="9.2" r="0.8"/>
	</g>
	<g>
		<g>
			<path class="st1" d="M20.7,43.7h-8.2c-0.5,0-0.8-0.4-0.8-0.8c0-0.5,0.4-0.8,0.8-0.8h7.4V38c0-0.5,0.4-0.8,0.8-0.8
				c0.5,0,0.8,0.4,0.8,0.8v4.9C21.5,43.4,21.2,43.7,20.7,43.7z"/>
		</g>
		<g>
			<path class="st1" d="M23.2,43.7h-2.5c-0.5,0-0.8-0.4-0.8-0.8c0-0.5,0.4-0.8,0.8-0.8h2.5c0.5,0,0.8,0.4,0.8,0.8
				C24,43.4,23.6,43.7,23.2,43.7z"/>
		</g>
		<g>
			<path class="st1" d="M20.7,18.2c-0.5,0-0.8-0.4-0.8-0.8v-4.1c0-0.5,0.4-0.8,0.8-0.8c0.5,0,0.8,0.4,0.8,0.8v4.1
				C21.5,17.9,21.2,18.2,20.7,18.2z"/>
		</g>
		<g>
			<circle class="st1" cx="10" cy="9.2" r="0.8"/>
		</g>
		<g>
			<circle class="st1" cx="14.1" cy="9.2" r="0.8"/>
		</g>
		<g>
			<path class="st1" d="M36.3,14.1H5.1c-0.5,0-0.8-0.4-0.8-0.8V5.1c0-0.5,0.4-0.8,0.8-0.8h31.3c0.5,0,0.8,0.4,0.8,0.8v8.2
				C37.2,13.8,36.8,14.1,36.3,14.1z M5.9,12.5h29.6V5.9H5.9V12.5z"/>
		</g>
		<g>
			<path class="st1" d="M20.7,30.6c-0.5,0-0.8-0.4-0.8-0.8v-4.1c0-0.5,0.4-0.8,0.8-0.8c0.5,0,0.8,0.4,0.8,0.8v4.1
				C21.5,30.2,21.2,30.6,20.7,30.6z"/>
		</g>
		<g>
			<circle class="st1" cx="10" cy="21.5" r="0.8"/>
		</g>
		<g>
			<circle class="st1" cx="14.1" cy="21.5" r="0.8"/>
		</g>
		<g>
			<path class="st1" d="M25.6,26.5H5.1c-0.5,0-0.8-0.4-0.8-0.8v-8.2c0-0.5,0.4-0.8,0.8-0.8h31.3c0.5,0,0.8,0.4,0.8,0.8v2.5
				c0,0.5-0.4,0.8-0.8,0.8c-0.5,0-0.8-0.4-0.8-0.8v-1.6H5.9v6.6h19.7c0.5,0,0.8,0.4,0.8,0.8S26.1,26.5,25.6,26.5z"/>
		</g>
		<g>
			<circle class="st1" cx="10" cy="33.9" r="0.8"/>
		</g>
		<g>
			<circle class="st1" cx="14.1" cy="33.9" r="0.8"/>
		</g>
		<g>
			<path class="st1" d="M23,38.8h-18c-0.5,0-0.8-0.4-0.8-0.8v-8.2c0-0.5,0.4-0.8,0.8-0.8h18.3c0.5,0,0.8,0.4,0.8,0.8
				c0,0.5-0.4,0.8-0.8,0.8H5.9v6.6H23c0.5,0,0.8,0.4,0.8,0.8C23.9,38.4,23.5,38.8,23,38.8z"/>
		</g>
	</g>
</g>
</svg>
