<!-- Generator: Adobe Illustrator 25.1.0, SVG Export Plug-In  -->
<svg version="1.1" xmlns="http://www.w3.org/2000/svg" xmlns:xlink="http://www.w3.org/1999/xlink" x="0px" y="0px" width="48px"
	 height="48px" viewBox="0 0 48 48" style="overflow:visible;enable-background:new 0 0 48 48;" xml:space="preserve">
<style type="text/css">
	.st0{opacity:0;fill:#FFFFFF;}
	.st1{fill:#C1A833;}
</style>
<defs>
</defs>
<rect class="st0" width="48" height="48"/>
<g>
	<g>
		<g>
			<path class="st1" d="M41.2,37.1H6.8c-1.4,0-2.5-1.1-2.5-2.5V8.4C4.3,7.1,5.4,6,6.8,6h34.4c1.4,0,2.5,1.1,2.5,2.5v26.2
				C43.7,36,42.6,37.1,41.2,37.1z M6.8,7.6C6.3,7.6,6,8,6,8.4v26.2c0,0.5,0.4,0.8,0.8,0.8h34.4c0.5,0,0.8-0.4,0.8-0.8V8.4
				c0-0.5-0.4-0.8-0.8-0.8H6.8z"/>
		</g>
		<g>
			<path class="st1" d="M33.8,42H14.2c-0.5,0-0.8-0.4-0.8-0.8s0.4-0.8,0.8-0.8h19.7c0.5,0,0.8,0.4,0.8,0.8S34.3,42,33.8,42z"/>
		</g>
		<g>
			<path class="st1" d="M18.3,42L18.3,42c-0.5,0-0.8-0.4-0.8-0.8l0-4.9c0-0.5,0.4-0.8,0.8-0.8l0,0c0.5,0,0.8,0.4,0.8,0.8l0,4.9
				C19.1,41.7,18.7,42,18.3,42z"/>
		</g>
		<g>
			<path class="st1" d="M29.7,42c-0.5,0-0.8-0.4-0.8-0.8v-4.9c0-0.5,0.4-0.8,0.8-0.8s0.8,0.4,0.8,0.8v4.9C30.6,41.7,30.2,42,29.7,42
				z"/>
		</g>
		<g>
			<path class="st1" d="M42.8,32.2H5.2c-0.5,0-0.8-0.4-0.8-0.8s0.4-0.8,0.8-0.8h37.7c0.5,0,0.8,0.4,0.8,0.8S43.3,32.2,42.8,32.2z"/>
		</g>
	</g>
	<g>
		<path class="st1" d="M14.2,28.9c-0.5,0-0.8-0.4-0.8-0.8V24h-3.3v4.1c0,0.5-0.4,0.8-0.8,0.8c-0.5,0-0.8-0.4-0.8-0.8v-4.9
			c0-0.5,0.4-0.8,0.8-0.8h4.9c0.5,0,0.8,0.4,0.8,0.8v4.9C15,28.5,14.6,28.9,14.2,28.9z"/>
	</g>
	<g>
		<path class="st1" d="M22.4,28.9c-0.5,0-0.8-0.4-0.8-0.8v-8.2h-3.3v8.2c0,0.5-0.4,0.8-0.8,0.8s-0.8-0.4-0.8-0.8v-9
			c0-0.5,0.4-0.8,0.8-0.8h4.9c0.5,0,0.8,0.4,0.8,0.8v9C23.2,28.5,22.8,28.9,22.4,28.9z"/>
	</g>
	<g>
		<path class="st1" d="M30.6,28.9c-0.5,0-0.8-0.4-0.8-0.8V16.6h-3.3v11.5c0,0.5-0.4,0.8-0.8,0.8c-0.5,0-0.8-0.4-0.8-0.8V15.8
			c0-0.5,0.4-0.8,0.8-0.8h4.9c0.5,0,0.8,0.4,0.8,0.8v12.3C31.4,28.5,31,28.9,30.6,28.9z"/>
	</g>
	<g>
		<path class="st1" d="M38.7,28.9c-0.5,0-0.8-0.4-0.8-0.8V13.4h-3.3v14.7c0,0.5-0.4,0.8-0.8,0.8S33,28.5,33,28.1V12.5
			c0-0.5,0.4-0.8,0.8-0.8h4.9c0.5,0,0.8,0.4,0.8,0.8v15.6C39.6,28.5,39.2,28.9,38.7,28.9z"/>
	</g>
	<g>
		<circle class="st1" cx="36.3" cy="10.1" r="0.8"/>
	</g>
	<g>
		<circle class="st1" cx="11.7" cy="20.7" r="0.8"/>
	</g>
	<g>
		<circle class="st1" cx="19.9" cy="16.6" r="0.8"/>
	</g>
	<g>
		<circle class="st1" cx="28.1" cy="13.4" r="0.8"/>
	</g>
	<g>
		<path class="st1" d="M14.2,11.7H9.3c-0.5,0-0.8-0.4-0.8-0.8s0.4-0.8,0.8-0.8h4.9c0.5,0,0.8,0.4,0.8,0.8S14.6,11.7,14.2,11.7z"/>
	</g>
	<g>
		<path class="st1" d="M14.2,15H9.3c-0.5,0-0.8-0.4-0.8-0.8s0.4-0.8,0.8-0.8h4.9c0.5,0,0.8,0.4,0.8,0.8S14.6,15,14.2,15z"/>
	</g>
</g>
</svg>
