<svg version="1.1" xmlns="http://www.w3.org/2000/svg" xmlns:xlink="http://www.w3.org/1999/xlink" x="0px" y="0px" width="76.6px"
	 height="81.7px" viewBox="0 0 76.6 81.7" style="overflow:visible;enable-background:new 0 0 76.6 81.7;" xml:space="preserve">
<style type="text/css">
	.st0{fill:#B5A031;}
</style>
<defs>
</defs>
<g id="Safe_box_1_">
	<g>
		<path class="st0" d="M9.6,9.6v9.1C8.1,19.2,7,20.6,7,22.3v3.2c0,1.7,1.1,3.1,2.5,3.6v18.4C8.1,48,7,49.4,7,51.1v3.2
			c0,1.7,1.1,3.1,2.5,3.6V67H67V9.6H9.6z M9.6,22.3c0-0.7,0.6-1.3,1.3-1.3c0.7,0,1.3,0.6,1.3,1.3v3.2c0,0.7-0.6,1.3-1.3,1.3
			c-0.7,0-1.3-0.6-1.3-1.3V22.3z M10.8,49.8c0.7,0,1.3,0.6,1.3,1.3v3.2c0,0.7-0.6,1.3-1.3,1.3c-0.7,0-1.3-0.6-1.3-1.3v-3.2
			C9.6,50.4,10.1,49.8,10.8,49.8z M64.5,64.5H12.1v-6.6c1.5-0.5,2.5-1.9,2.5-3.6v-3.2c0-1.7-1.1-3.1-2.5-3.6V29.1
			c1.5-0.5,2.5-1.9,2.5-3.6v-3.2c0-1.7-1.1-3.1-2.5-3.6v-6.6h52.4V64.5z"/>
		<path class="st0" d="M35.3,55c4.5,0,8.6-1.7,11.8-4.9c3.2-3.2,4.9-7.3,4.9-11.8c0-4.5-1.7-8.6-4.9-11.8c-3.2-3.2-7.3-4.9-11.8-4.9
			s-8.6,1.7-11.8,4.9c-3.2,3.2-4.9,7.3-4.9,11.8s1.7,8.6,4.9,11.8C26.6,53.2,30.8,55,35.3,55z M25.3,28.3c2.7-2.7,6.2-4.1,10-4.1
			s7.3,1.5,10,4.1c2.7,2.7,4.1,6.2,4.1,10c0,3.8-1.5,7.3-4.1,10c-2.7,2.7-6.2,4.1-10,4.1c-3.8,0-7.3-1.5-10-4.1
			c-2.7-2.7-4.1-6.2-4.1-10C21.2,34.5,22.6,31,25.3,28.3z"/>
		<path class="st0" d="M47.5,37h-2c-0.1-1-0.4-1.9-0.7-2.7l1.7-1c0.6-0.4,0.8-1.1,0.5-1.7c-0.4-0.6-1.1-0.8-1.7-0.5l-1.7,1
			c-0.6-0.8-1.2-1.4-2-2l1-1.7c0.4-0.6,0.1-1.4-0.5-1.7c-0.6-0.4-1.4-0.1-1.7,0.5l-1,1.7c-0.9-0.4-1.8-0.6-2.7-0.7v-2
			c0-0.7-0.6-1.3-1.3-1.3c-0.7,0-1.3,0.6-1.3,1.3v2c-1,0.1-1.9,0.4-2.7,0.7l-1-1.7c-0.4-0.6-1.1-0.8-1.7-0.5
			c-0.6,0.4-0.8,1.1-0.5,1.7l1,1.7c-0.8,0.6-1.4,1.2-2,2l-1.7-1c-0.6-0.4-1.4-0.1-1.7,0.5c-0.4,0.6-0.1,1.4,0.5,1.7l1.7,1
			c-0.4,0.9-0.6,1.8-0.7,2.7h-2c-0.7,0-1.3,0.6-1.3,1.3c0,0.7,0.6,1.3,1.3,1.3h2c0.1,1,0.4,1.9,0.7,2.7l-1.7,1
			c-0.6,0.4-0.8,1.1-0.5,1.7c0.2,0.4,0.7,0.6,1.1,0.6c0.2,0,0.4-0.1,0.6-0.2l1.7-1c0.6,0.8,1.2,1.4,2,2l-1,1.7
			c-0.4,0.6-0.1,1.4,0.5,1.7c0.2,0.1,0.4,0.2,0.6,0.2c0.4,0,0.9-0.2,1.1-0.6l1-1.7c0.9,0.4,1.8,0.6,2.7,0.7v2c0,0.7,0.6,1.3,1.3,1.3
			c0.7,0,1.3-0.6,1.3-1.3v-2c1-0.1,1.9-0.4,2.7-0.7l1,1.7c0.2,0.4,0.7,0.6,1.1,0.6c0.2,0,0.4-0.1,0.6-0.2c0.6-0.4,0.8-1.1,0.5-1.7
			l-1-1.7c0.8-0.6,1.4-1.2,2-2l1.7,1c0.2,0.1,0.4,0.2,0.6,0.2c0.4,0,0.9-0.2,1.1-0.6c0.4-0.6,0.1-1.4-0.5-1.7l-1.7-1
			c0.4-0.9,0.6-1.8,0.7-2.7h2c0.7,0,1.3-0.6,1.3-1.3C48.8,37.6,48.2,37,47.5,37z M35.3,46.1c-4.3,0-7.8-3.5-7.8-7.8s3.5-7.8,7.8-7.8
			s7.8,3.5,7.8,7.8S39.6,46.1,35.3,46.1z"/>
		<path class="st0" d="M70.5,0H6.1C2.7,0,0,2.7,0,6.1v64.5c0,3.3,2.7,6.1,6.1,6.1h3.5v3.3c0,1.1,0.9,1.9,1.9,1.9h8.3
			c1.1,0,1.9-0.9,1.9-1.9v-3.3h33.2v3.3c0,1.1,0.9,1.9,1.9,1.9h8.3c1.1,0,1.9-0.9,1.9-1.9v-3.3h3.5c3.3,0,6.1-2.7,6.1-6.1V6.1
			C76.6,2.7,73.8,0,70.5,0z M19.1,79.2h-7v-2.6h7V79.2z M64.5,79.2h-7v-2.6h7V79.2z M74,70.5c0,1.9-1.6,3.5-3.5,3.5H67H54.9H21.7
			H9.6H6.1c-1.9,0-3.5-1.6-3.5-3.5V6.1c0-1.9,1.6-3.5,3.5-3.5h64.5c1.9,0,3.5,1.6,3.5,3.5V70.5z"/>
		<path class="st0" d="M58,51.8c2,0,3.6-1.6,3.6-3.6v-21c0-2-1.6-3.6-3.6-3.6s-3.6,1.6-3.6,3.6v21C54.4,50.2,56,51.8,58,51.8z
			 M56.9,27.1c0-0.6,0.5-1.1,1.1-1.1c0.6,0,1.1,0.5,1.1,1.1v21c0,0.6-0.5,1.1-1.1,1.1c-0.6,0-1.1-0.5-1.1-1.1V27.1z"/>
	</g>
</g>
</svg>
