<svg version="1.1" xmlns="http://www.w3.org/2000/svg" xmlns:xlink="http://www.w3.org/1999/xlink" x="0px" y="0px" width="24px"
	 height="24px" viewBox="0 0 24 24" style="overflow:visible;enable-background:new 0 0 24 24;" xml:space="preserve">
<style type="text/css">
	.st0{fill:#C1AA35;}
</style>
<defs>
</defs>
<path class="st0" d="M21,0h-2v10h2V0z M16,12v6h3v6h2v-6h3v-6H16z M22,16h-4v-2h4V16z M13,0h-2v3h2V0z M16,5H8v6h3v13h2V11h3V5z
	 M14,9h-4V7h4V9z M5,0H3v14h2V0z M0,22h3v2h2v-2h3v-6H0V22z M2,18h4v2H2V18z"/>
</svg>
