<svg version="1.1" xmlns="http://www.w3.org/2000/svg" xmlns:xlink="http://www.w3.org/1999/xlink" x="0px" y="0px" width="135.9px"
	 height="145px" viewBox="0 0 135.9 145" style="overflow:visible;enable-background:new 0 0 135.9 145;" xml:space="preserve">
<style type="text/css">
	.st0{fill:#BCA643;}
</style>
<defs>
</defs>
<g>
	<g>
		<path class="st0" d="M68.7,145c-37.1,0-67.2-30.1-67.2-67.2c0-5.6,0.7-11.2,2.1-16.5c0.4-1.6,2-2.6,3.6-2.2c1.6,0.4,2.6,2,2.2,3.6
			c-1.2,4.9-1.9,10-1.9,15.1C7.5,111.6,35,139,68.7,139c33.8,0,61.2-27.5,61.2-61.2c0-33.8-27.5-61.2-61.2-61.2
			c-7.4,0-14.5,1.3-21.4,3.8c-1.6,0.6-3.3-0.2-3.9-1.8c-0.6-1.6,0.2-3.3,1.8-3.9c7.5-2.8,15.4-4.2,23.5-4.2
			c37.1,0,67.2,30.1,67.2,67.2C135.9,114.9,105.8,145,68.7,145z"/>
	</g>
	<g>
		<path class="st0" d="M68.7,145c-21.4,0-38.2-29.3-38.2-66.7c0-37.4,16.8-66.6,38.2-66.6c15.2,0,29,15.6,35,39.8
			c0.4,1.6-0.6,3.2-2.2,3.6c-1.6,0.4-3.2-0.6-3.6-2.2c-5.3-21.4-16.8-35.3-29.2-35.3c-17.4,0-32.2,27.8-32.2,60.6
			c0,32.9,14.7,60.7,32.2,60.7c7.4,0,14.7-5,20.5-14.2c0.9-1.4,2.7-1.8,4.1-0.9c1.4,0.9,1.8,2.7,0.9,4.1C87.3,139,78.3,145,68.7,145
			z"/>
	</g>
	<g>
		<path class="st0" d="M68.7,145c-1.7,0-3-1.3-3-3V14.7c0-1.7,1.3-3,3-3c1.7,0,3,1.3,3,3V142C71.7,143.7,70.4,145,68.7,145z"/>
	</g>
	<g>
		<path class="st0" d="M125.1,55.7H30.2c-1.7,0-3-1.3-3-3c0-1.7,1.3-3,3-3h94.9c1.7,0,3,1.3,3,3C128.1,54.3,126.8,55.7,125.1,55.7z"
			/>
	</g>
	<g>
		<path class="st0" d="M125.1,110.4h-7.1c-1.7,0-3-1.3-3-3c0-1.7,1.3-3,3-3h7.1c1.7,0,3,1.3,3,3
			C128.1,109.1,126.8,110.4,125.1,110.4z"/>
	</g>
	<g>
		<path class="st0" d="M84.2,110.4H14.6c-1.7,0-3-1.3-3-3c0-1.7,1.3-3,3-3h69.6c1.7,0,3,1.3,3,3C87.2,109.1,85.8,110.4,84.2,110.4z"
			/>
	</g>
	<g>
		<g>
			<path class="st0" d="M18.4,60c-1.1,0-2.2-0.6-2.7-1.6C14.1,55.2,0,27.4,0,18.4C0,8.3,8.3,0,18.4,0s18.4,8.3,18.4,18.4
				c0,9-14.1,36.9-15.7,40C20.6,59.4,19.5,60,18.4,60z M18.4,6C11.6,6,6,11.6,6,18.4c0,4.9,6.8,20.4,12.4,31.9
				C24,38.8,30.8,23.3,30.8,18.4C30.8,11.6,25.2,6,18.4,6z"/>
		</g>
		<g>
			<path class="st0" d="M24.1,18.8c0,3.1-2.5,5.7-5.7,5.7c-3.1,0-5.7-2.5-5.7-5.7c0-3.1,2.5-5.7,5.7-5.7
				C21.5,13.1,24.1,15.7,24.1,18.8z"/>
		</g>
	</g>
	<g>
		<g>
			<path class="st0" d="M101.3,119.1c-1.1,0-2.2-0.6-2.7-1.6c-1.6-3.1-15.7-31-15.7-40c0-10.1,8.3-18.4,18.4-18.4
				c10.1,0,18.4,8.3,18.4,18.4c0,9-14.1,36.9-15.7,40C103.5,118.5,102.4,119.1,101.3,119.1z M101.3,65.1c-6.8,0-12.4,5.6-12.4,12.4
				c0,4.9,6.8,20.4,12.4,31.9c5.6-11.5,12.4-27.1,12.4-31.9C113.7,70.6,108.1,65.1,101.3,65.1z"/>
		</g>
		<g>
			<path class="st0" d="M107,77.9c0,3.1-2.5,5.7-5.7,5.7c-3.1,0-5.7-2.5-5.7-5.7c0-3.1,2.5-5.7,5.7-5.7
				C104.4,72.2,107,74.8,107,77.9z"/>
		</g>
	</g>
</g>
</svg>
