<!-- Generator: Adobe Illustrator 25.2.1, SVG Export Plug-In  -->
<svg version="1.1" xmlns="http://www.w3.org/2000/svg" xmlns:xlink="http://www.w3.org/1999/xlink" x="0px" y="0px" width="48px"
	 height="48px" viewBox="0 0 48 48" style="overflow:visible;enable-background:new 0 0 48 48;" xml:space="preserve">
<style type="text/css">
	.st0{opacity:0;fill:#FFFFFF;}
	.st1{fill:#C1A833;}
</style>
<defs>
</defs>
<rect class="st0" width="48" height="48"/>
<g>
	<g>
		<path class="st1" d="M37,25H20.6c-0.5,0-0.8-0.4-0.8-0.8c0-0.5,0.4-0.8,0.8-0.8H37c0.5,0,0.8,0.4,0.8,0.8C37.8,24.7,37.4,25,37,25
			z"/>
	</g>
	<g>
		<path class="st1" d="M13.2,27.5c-1.8,0-3.3-1.5-3.3-3.3c0-1.8,1.5-3.3,3.3-3.3s3.3,1.5,3.3,3.3C16.5,26,15,27.5,13.2,27.5z
			 M13.2,22.6c-0.9,0-1.6,0.7-1.6,1.6c0,0.9,0.7,1.6,1.6,1.6s1.6-0.7,1.6-1.6C14.8,23.3,14.1,22.6,13.2,22.6z"/>
	</g>
	<g>
		<path class="st1" d="M37.4,15.2H21c-0.5,0-0.8-0.4-0.8-0.8c0-0.5,0.4-0.8,0.8-0.8h16.4c0.5,0,0.8,0.4,0.8,0.8
			C38.2,14.8,37.8,15.2,37.4,15.2z"/>
	</g>
	<g>
		<path class="st1" d="M13.6,17.7c-1.8,0-3.3-1.5-3.3-3.3s1.5-3.3,3.3-3.3s3.3,1.5,3.3,3.3S15.4,17.7,13.6,17.7z M13.6,12.7
			c-0.9,0-1.6,0.7-1.6,1.6s0.7,1.6,1.6,1.6s1.6-0.7,1.6-1.6S14.5,12.7,13.6,12.7z"/>
	</g>
	<g>
		<path class="st1" d="M37.4,34.9H21c-0.5,0-0.8-0.4-0.8-0.8s0.4-0.8,0.8-0.8h16.4c0.5,0,0.8,0.4,0.8,0.8S37.8,34.9,37.4,34.9z"/>
	</g>
	<g>
		<path class="st1" d="M13.6,37.3c-1.8,0-3.3-1.5-3.3-3.3c0-1.8,1.5-3.3,3.3-3.3s3.3,1.5,3.3,3.3C16.9,35.9,15.4,37.3,13.6,37.3z
			 M13.6,32.4c-0.9,0-1.6,0.7-1.6,1.6s0.7,1.6,1.6,1.6s1.6-0.7,1.6-1.6S14.5,32.4,13.6,32.4z"/>
	</g>
	<g>
		<path class="st1" d="M38.2,43.9H10.3c-3.2,0-5.7-2.6-5.7-5.7V10.3c0-3.2,2.6-5.7,5.7-5.7h27.8c3.2,0,5.7,2.6,5.7,5.7v27.8
			C43.9,41.3,41.3,43.9,38.2,43.9z M10.3,6.2c-2.3,0-4.1,1.8-4.1,4.1v27.8c0,2.3,1.8,4.1,4.1,4.1h27.8c2.3,0,4.1-1.8,4.1-4.1V10.3
			c0-2.3-1.8-4.1-4.1-4.1H10.3z"/>
	</g>
</g>
</svg>
