<!-- Generator: Adobe Illustrator 25.2.1, SVG Export Plug-In  -->
<svg version="1.1" xmlns="http://www.w3.org/2000/svg" xmlns:xlink="http://www.w3.org/1999/xlink" x="0px" y="0px" width="48px"
	 height="48px" viewBox="0 0 48 48" style="overflow:visible;enable-background:new 0 0 48 48;" xml:space="preserve">
<style type="text/css">
	.st0{opacity:0;fill:#FFFFFF;}
	.st1{fill:#C1A833;}
</style>
<defs>
</defs>
<rect class="st0" width="48" height="48"/>
<g>
	<g>
		<path class="st1" d="M17.8,27.4c-1.8,0-3.3-1.5-3.3-3.3s1.5-3.3,3.3-3.3s3.3,1.5,3.3,3.3S19.6,27.4,17.8,27.4z M17.8,22.5
			c-0.9,0-1.6,0.7-1.6,1.6s0.7,1.6,1.6,1.6s1.6-0.7,1.6-1.6S18.7,22.5,17.8,22.5z"/>
	</g>
	<g>
		<path class="st1" d="M26,37.2c-1.8,0-3.3-1.5-3.3-3.3s1.5-3.3,3.3-3.3c1.8,0,3.3,1.5,3.3,3.3S27.8,37.2,26,37.2z M26,32.3
			c-0.9,0-1.6,0.7-1.6,1.6c0,0.9,0.7,1.6,1.6,1.6c0.9,0,1.6-0.7,1.6-1.6C27.6,33,26.9,32.3,26,32.3z"/>
	</g>
	<g>
		<path class="st1" d="M30.9,17.6c-1.8,0-3.3-1.5-3.3-3.3s1.5-3.3,3.3-3.3s3.3,1.5,3.3,3.3S32.7,17.6,30.9,17.6z M30.9,12.7
			c-0.9,0-1.6,0.7-1.6,1.6c0,0.9,0.7,1.6,1.6,1.6s1.6-0.7,1.6-1.6C32.5,13.5,31.8,12.7,30.9,12.7z"/>
	</g>
	<g>
		<path class="st1" d="M38.2,43.7H10.5c-3.2,0-5.7-2.6-5.7-5.7V10.3c0-3.2,2.6-5.7,5.7-5.7h27.8c3.2,0,5.7,2.6,5.7,5.7V38
			C43.9,41.2,41.4,43.7,38.2,43.7z M10.5,6.2c-2.3,0-4.1,1.8-4.1,4.1V38c0,2.3,1.8,4.1,4.1,4.1h27.8c2.3,0,4.1-1.8,4.1-4.1V10.3
			c0-2.3-1.8-4.1-4.1-4.1H10.5z"/>
	</g>
	<g>
		<path class="st1" d="M37.4,25H20.3c-0.5,0-0.8-0.4-0.8-0.8s0.4-0.8,0.8-0.8h17.1c0.5,0,0.8,0.4,0.8,0.8S37.9,25,37.4,25z"/>
	</g>
	<g>
		<path class="st1" d="M20.3,24.2"/>
	</g>
	<g>
		<path class="st1" d="M15.4,25h-4.1c-0.5,0-0.8-0.4-0.8-0.8s0.4-0.8,0.8-0.8h4.1c0.5,0,0.8,0.4,0.8,0.8S15.8,25,15.4,25z"/>
	</g>
	<g>
		<path class="st1" d="M37.4,34.8h-9c-0.5,0-0.8-0.4-0.8-0.8s0.4-0.8,0.8-0.8h9c0.5,0,0.8,0.4,0.8,0.8S37.9,34.8,37.4,34.8z"/>
	</g>
	<g>
		<path class="st1" d="M23.5,34.8H11.3c-0.5,0-0.8-0.4-0.8-0.8s0.4-0.8,0.8-0.8h12.2c0.5,0,0.8,0.4,0.8,0.8S24,34.8,23.5,34.8z"/>
	</g>
	<g>
		<path class="st1" d="M37.4,15.2h-4.1c-0.5,0-0.8-0.4-0.8-0.8c0-0.5,0.4-0.8,0.8-0.8h4.1c0.5,0,0.8,0.4,0.8,0.8
			C38.2,14.8,37.9,15.2,37.4,15.2z"/>
	</g>
	<g>
		<path class="st1" d="M28.4,15.2H11.3c-0.5,0-0.8-0.4-0.8-0.8c0-0.5,0.4-0.8,0.8-0.8h17.1c0.5,0,0.8,0.4,0.8,0.8
			C29.2,14.8,28.9,15.2,28.4,15.2z"/>
	</g>
</g>
</svg>
