<?xml version="1.0" encoding="utf-8"?>
<!-- Generator: Adobe Illustrator 25.0.0, SVG Export Plug-In . SVG Version: 6.00 Build 0)  -->
<svg version="1.1" id="Layer_1" xmlns="http://www.w3.org/2000/svg" xmlns:xlink="http://www.w3.org/1999/xlink" x="0px" y="0px"
	 viewBox="0 0 193.1 193.1" style="enable-background:new 0 0 193.1 193.1;" xml:space="preserve">
<style type="text/css">
	.st0{fill:#FFFFFF;fill-opacity:0;}
	.st1{fill:#BCA644;}
	.st2{fill:#00AEEF;}
	.st3{fill:#231F20;}
</style>
<rect x="0.5" y="0.5" class="st0" width="192.1" height="192.1"/>
<g>
	<g>
		<g>
			<circle class="st1" cx="94.6" cy="122.3" r="7.5"/>
		</g>
	</g>
	<g>
		<g>
			
				<ellipse transform="matrix(2.346600e-02 -0.9997 0.9997 2.346600e-02 19.795 170.0092)" class="st2" cx="96.9" cy="74.9" rx="19.3" ry="19.3"/>
		</g>
	</g>
	<g>
		<path class="st3" d="M113.3,120.2c-1.2-0.3-2.3,0.4-2.6,1.6c-0.3,1.2,0.4,2.3,1.6,2.6c1.2,0.3,2.3-0.4,2.6-1.6
			C115.1,121.6,114.4,120.5,113.3,120.2z"/>
		<path class="st3" d="M77.9,120.2c-2.8-0.7-3.9,3.5-1.1,4.2c1.2,0.3,2.3-0.4,2.6-1.6C79.8,121.6,79.1,120.5,77.9,120.2z"/>
		<path class="st3" d="M65.4,90.9c-2.5-0.6-3.5,3.2-1,3.8C67,95.4,68,91.6,65.4,90.9z"/>
		<path class="st3" d="M118.7,51.6c0.6-2.5-3.2-3.5-3.8-1C114.2,53.2,118,54.2,118.7,51.6z"/>
		<path class="st3" d="M93,33.5l0.1,8.8c0,1,0.8,1.8,1.9,1.8c1,0,1.9-0.9,1.9-1.9l-0.1-8.8c5.6-1.5,7.4-8.5,3.3-12.5
			c-1.4-1.4-3.3-2.1-5.3-2.1c-4.1,0-7.4,3.4-7.4,7.5C87.4,29.8,89.8,32.7,93,33.5z M94.8,22.6C94.8,22.6,94.8,22.6,94.8,22.6
			c1,0,1.9,0.4,2.6,1.1c0.7,0.7,1.1,1.6,1.1,2.6v0c0,2.1-1.6,3.7-3.7,3.8h0l0,0c0,0,0,0,0,0c-2,0-3.7-1.6-3.7-3.7
			C91,24.3,92.7,22.6,94.8,22.6z"/>
		<path class="st3" d="M40.8,66.5c10.3,5.8,10.1,5.9,10.9,5.9c1.9,0,2.6-2.5,0.9-3.5l-9.9-5.6c0.9-3.2-0.5-6.7-3.5-8.4
			c-5.8-3.3-12.6,2.2-10.8,8.5C29.8,68.9,36.8,70.6,40.8,66.5z M37.3,58.1c1.8,1,2.4,3.3,1.4,5.1c-1.6,2.9-5.9,2.3-6.8-0.8
			C31,59.1,34.4,56.5,37.3,58.1z"/>
		<path class="st3" d="M51.2,119.2l-9.8,5.8c-6.2-6.2-16.1,1.6-11.7,9.1c4.4,7.5,16,2.5,13.6-5.8l9.8-5.8
			C55.3,121.1,53.4,117.9,51.2,119.2z M35.2,133.8c-2-0.5-3.2-2.5-2.7-4.5c0.7-2.8,4.5-4.1,6.8-1C41,131.2,38.4,134.7,35.2,133.8z"
			/>
		<path class="st3" d="M150.1,123.9L150.1,123.9l-9.9-5.6c-0.9-0.5-2-0.2-2.5,0.7c-0.5,0.9-0.2,2,0.7,2.5l9.9,5.6l0,0
			c-2.3,8.5,9.4,13.1,13.7,5.6C166.3,125.1,156.2,117.6,150.1,123.9z M158.7,130.9c-1,1.8-3.3,2.4-5.1,1.4c-1.8-1-2.4-3.3-1.4-5.1
			c1-1.8,3.3-2.4,5.1-1.4C159.1,126.8,159.7,129.1,158.7,130.9z"/>
		<path class="st3" d="M139.7,71.2l9.8-5.8c2.3,2.3,6,2.9,9,1.1h0c3.5-2.1,4.7-6.7,2.6-10.2c-4.4-7.5-16-2.5-13.6,5.9l-9.8,5.8
			c-0.9,0.5-1.2,1.7-0.7,2.6C137.7,71.5,138.8,71.7,139.7,71.2z M155.7,56.5c4.8,1.2,2.9,8.4-1.9,7.2
			C149.1,62.5,151,55.3,155.7,56.5z"/>
		<path class="st3" d="M118.2,101.1c0-0.5,0-28.5-0.1-29c-0.3-12.5-10.5-22.9-23.5-22.9c-12.7,0.1-22.9,10.1-23.3,22.7
			c-0.3,0.6-0.2-1.1-0.2,29.2c-3.6,0.5-6.5,3.7-6.5,7.4v26.5c0,4.2,3.4,7.5,7.5,7.5h45c4.2,0,7.5-3.4,7.5-7.5v-26.5
			C124.7,104.7,121.8,101.6,118.2,101.1z M74.8,101V85.1c9.1,14.5,30.3,14.7,39.6,0.1V101H74.8z M94.7,52.9
			c10.8,0,19.6,8.8,19.7,19.6c0.1,10.9-8.8,19.8-19.7,19.8C83.8,92.3,75,83.6,75,72.7C74.9,61.8,83.7,52.9,94.7,52.9z M121,135.1
			c0,2.1-1.7,3.8-3.8,3.8h-45c-2.1,0-3.8-1.7-3.8-3.8v-26.5c0-2.1,1.7-3.8,3.8-3.8c0.8,0,0.8,0,0.8,0c0,0,0,0,0.1,0h44.1
			c2.1,0,3.8,1.7,3.8,3.8V135.1z"/>
		<path class="st3" d="M66.6,85.2c0-12.8-1.4-22.6,8.1-32.3c1.7-1.7-0.9-4.4-2.6-2.6C61.4,61,62.8,72,62.8,85.2
			C62.8,87.6,66.6,87.6,66.6,85.2z"/>
		<path class="st3" d="M119.1,58.8c4.6,8.1,3.7,12.8,3.7,35.7c0,2.5,3.7,2.5,3.7,0c0-22.6,1.1-28.4-4.2-37.6
			C121.1,54.8,117.9,56.6,119.1,58.8z"/>
		<path class="st3" d="M98.3,116.4c-0.7,0.7-0.7,1.9,0,2.6c0.9,1,1.5,2.2,1.5,3.6c0,2.8-2.3,5.1-5.1,5.1c-2.8,0-5.1-2.3-5.1-5.1
			c0-1.3,0.5-2.6,1.5-3.6c0.7-0.7,0.7-1.9,0-2.6c-2.3-2.2-5.2,2.6-5.2,6.2c0,4.9,4,8.8,8.8,8.8c4.9,0,8.8-4,8.8-8.8
			c0-2.3-0.9-4.5-2.5-6.2C100.2,115.7,99,115.7,98.3,116.4z"/>
		<path class="st3" d="M94.7,122.6c1,0,1.9-0.8,1.9-1.9V113c0-2.5-3.7-2.5-3.7,0v7.8C92.8,121.8,93.6,122.6,94.7,122.6z"/>
		<path class="st3" d="M96.7,157.4l-0.1-8.8c0-1-0.8-1.8-1.9-1.8c0,0,0,0,0,0c-1,0-1.9,0.9-1.8,1.9l0.1,8.8
			c-8.3,2.2-6.7,14.6,2,14.6c6.7-0.1,9.8-8.2,5.1-12.8C99.2,158.3,98,157.7,96.7,157.4z M97.6,167.2c-2.3,2.4-6.4,0.7-6.4-2.6
			c0-3.3,4-5,6.3-2.7c0.7,0.7,1.1,1.6,1.1,2.6C98.7,165.5,98.3,166.5,97.6,167.2z"/>
	</g>
	<path class="st3" d="M99.4,60c-3.9-0.8-4.3-2.7-5.7-1.7C91.1,60,88,60.5,85,60c-0.6-0.1-1.3,0.2-1.5,0.8
		c-3.3,6.9-3.2,14.8,0.3,20.1c3.8,5.7,9.3,7.8,10.6,7.8c0.2,0,0.4,0,0.5-0.1c5.5-1.5,8.9-5.8,10.1-7.7c3.5-5.3,3.6-13.2,0.3-20.1
		C104.6,59.1,103.3,60.8,99.4,60z M102.8,79.3c-0.8,1.2-3.7,5.2-8.3,6.5c-4.6-1.3-7.5-5.3-8.3-6.5c-2.8-4.3-3-10.6-0.6-16.4
		c3,0.4,6.2-0.3,8.9-1.9c2.7,1.6,5.9,2.2,8.9,1.9C105.8,68.7,105.6,75,102.8,79.3z"/>
	<path class="st3" d="M98.5,68.5l-5.8,7.8l-2.4-2.4c-1.3-1.3-3.3,0.7-2,2c3.8,3.8,3.8,4,4.6,4c0.4,0,0.8-0.2,1-0.6l6.7-9.1
		C101.8,68.7,99.6,67,98.5,68.5z"/>
</g>
</svg>
