<?xml version="1.0" encoding="utf-8"?>
<!-- Generator: Adobe Illustrator 25.0.0, SVG Export Plug-In . SVG Version: 6.00 Build 0)  -->
<svg version="1.1" id="Layer_1" xmlns="http://www.w3.org/2000/svg" xmlns:xlink="http://www.w3.org/1999/xlink" x="0px" y="0px"
	 viewBox="0 0 193.1 193.1" style="enable-background:new 0 0 193.1 193.1;" xml:space="preserve">
<style type="text/css">
	.st0{fill:#FFFFFF;fill-opacity:0;}
	.st1{fill:#BCA644;}
	.st2{fill:#00AEEF;}
	.st3{fill:#231F20;}
</style>
<rect x="0.5" y="0.5" class="st0" width="192.1" height="192.1"/>
<g>
	<path class="st1" d="M94.1,68.8l-10.3,38.5l38.5,10.3l10.3-38.5L94.1,68.8z M111,98.2l-7.9-2.1l2.1-7.9l7.9,2.1L111,98.2z"/>
	<path class="st2" d="M156.6,39.5L90.1,21.6c-3.4-0.9-6.8,1.1-7.7,4.5l-1.4,5.3l78.7,21.1l1.4-5.3C162,43.8,160,40.4,156.6,39.5z"/>
	<path class="st2" d="M123.3,163.9l-66.5-17.8c-3.4-0.9-5.4-4.4-4.5-7.7l1.4-5.3l78.7,21.1l-1.4,5.3
		C130.1,162.8,126.6,164.8,123.3,163.9z"/>
	<g>
		<path class="st3" d="M125,167c-0.8,0-1.6-0.1-2.3-0.3l-66.8-17.9c-4.8-1.3-7.7-6.2-6.4-11L79.7,25.3c0.6-2.3,2.1-4.3,4.2-5.5
			c2.1-1.2,4.5-1.5,6.8-0.9l66.8,17.9c4.8,1.3,7.7,6.2,6.4,11L153.1,88c-0.3,1.1-1.5,1.8-2.6,1.5c-1.1-0.3-1.8-1.5-1.5-2.6
			l10.8-40.1c0.7-2.5-0.8-5.1-3.3-5.8L89.6,23.1c-1.2-0.3-2.5-0.2-3.6,0.5c-1.1,0.6-1.9,1.6-2.2,2.9L53.7,138.9
			c-0.7,2.5,0.8,5.1,3.3,5.8l66.8,17.9c1.2,0.3,2.5,0.2,3.6-0.5c1.1-0.6,1.9-1.6,2.2-2.9L136,135c0.3-1.1,1.5-1.8,2.6-1.5
			c1.1,0.3,1.8,1.5,1.5,2.6l-6.5,24.2c-0.6,2.3-2.1,4.3-4.2,5.5C128.1,166.6,126.6,167,125,167z"/>
	</g>
	<g>
		<path class="st3" d="M52.1,161.3c-0.9,0-1.7-0.5-2-1.4c-0.4-1.1,0.1-2.4,1.3-2.8c5.4-2,11.4-1.8,17.1-1.6c6,0.2,12.2,0.5,18-1.8
			c1.1-0.4,2.4,0.1,2.8,1.2c0.4,1.1-0.1,2.4-1.2,2.8c-6.7,2.6-13.3,2.4-19.7,2.1c-5.5-0.2-10.8-0.4-15.4,1.3
			C52.6,161.2,52.3,161.3,52.1,161.3z"/>
	</g>
	<g>
		<path class="st3" d="M31.1,113.2c-0.4,0-0.9-0.1-1.3-0.4c-1-0.7-1.2-2-0.5-3c2.9-4,4.5-15.8,5.3-22.1c0.2-1.2,0.3-2.2,0.4-3
			c1-6.6,6.8-12.1,13.6-18.4c6.7-6.3,14.3-13.3,19-23.1c2.4-5,6.7-6.3,9.9-5.3c1.1,0.3,1.8,1.5,1.5,2.7c-0.3,1.1-1.5,1.8-2.7,1.5
			C75,41.5,73,42.3,71.7,45c-5.1,10.5-13,17.9-20,24.4c-6.2,5.8-11.6,10.7-12.3,15.9c-0.1,0.8-0.2,1.8-0.4,2.9
			c-0.9,7.2-2.5,19.2-6.1,24.1C32.5,112.9,31.8,113.2,31.1,113.2z"/>
	</g>
	<g>
		<path class="st3" d="M145.7,106.4c-2,0-4-0.7-5.7-1.9c-2-1.5-3.2-3.7-3.5-6.1l-0.1-0.8c-0.6-5.1,2.9-9.7,8-10.4l10.5-1.3
			c5.1-0.6,9.7,2.9,10.4,8l0.1,0.8c0.6,5.1-2.9,9.7-8,10.4l-10.5,1.3C146.5,106.3,146.1,106.4,145.7,106.4z M156.1,90
			c-0.2,0-0.4,0-0.6,0L145,91.4c-2.7,0.3-4.6,2.8-4.3,5.5l0.1,0.8c0.2,1.3,0.8,2.5,1.9,3.3c1.1,0.8,2.4,1.2,3.7,1l10.5-1.3
			c2.7-0.3,4.6-2.8,4.3-5.5l-0.1-0.8C160.7,91.8,158.6,90,156.1,90z"/>
	</g>
	<g>
		<path class="st3" d="M147.6,122.4c-0.4,0-0.8,0-1.2-0.1l-10.5-1.4c-5-0.7-8.5-5.3-7.8-10.2l0.1-0.8c0.3-2.4,1.6-4.5,3.5-6
			c1.9-1.5,4.3-2.1,6.7-1.8l10.5,1.4c5,0.7,8.5,5.3,7.8,10.2l-0.1,0.8C156,119.1,152.1,122.4,147.6,122.4z M137.3,106.3
			c-1,0-2.1,0.3-2.9,1c-1,0.8-1.7,1.9-1.9,3.2l-0.1,0.8c-0.2,1.3,0.2,2.5,1,3.6c0.8,1,1.9,1.7,3.2,1.9L147,118
			c2.6,0.4,5.1-1.5,5.4-4.1c0,0,0.1-0.8,0.1-0.8c0.3-2.6-1.5-5.1-4.1-5.4l-10.5-1.4C137.7,106.3,137.5,106.3,137.3,106.3z"/>
	</g>
	<g>
		<path class="st3" d="M138.3,137c-1.2,0-2.4-0.3-3.5-0.8l-3.9-1.7c-4.4-2-6.5-7.2-4.5-11.6l0.3-0.7c0.9-2.1,2.7-3.8,4.9-4.6
			c2.2-0.9,4.6-0.8,6.7,0.1l3.9,1.7c2.1,0.9,3.8,2.7,4.6,4.9c0.9,2.2,0.8,4.6-0.1,6.7l-0.3,0.7c-0.9,2.1-2.7,3.8-4.9,4.6
			C140.5,136.8,139.4,137,138.3,137z M134.8,121.2c-0.6,0-1.1,0.1-1.6,0.3c-1.1,0.4-2,1.3-2.5,2.4l-0.3,0.7c-1,2.3,0,4.9,2.3,5.9
			l3.9,1.7c1.1,0.5,2.3,0.5,3.4,0.1c1.1-0.4,2-1.3,2.5-2.4l0.3-0.7c0.5-1.1,0.5-2.3,0.1-3.4c-0.4-1.1-1.3-2-2.4-2.5l-3.9-1.7
			C136,121.4,135.4,121.2,134.8,121.2z"/>
	</g>
	<g>
		<path class="st3" d="M153.2,82.6c-1,0-1.9-0.7-2.1-1.7c-0.2-1.2,0.5-2.3,1.7-2.5l11.6-2.4c3.1-0.6,5.3-3.4,5.2-6.6
			c-0.1-2-1-3.8-2.5-4.9c-1.5-1.2-3.5-1.6-5.4-1.2l-2.6,0.6c-1.2,0.3-2.3-0.5-2.6-1.6c-0.3-1.2,0.5-2.3,1.6-2.6l2.6-0.6
			c3.2-0.7,6.4,0,9,2c2.6,2,4.1,5,4.2,8.2c0.2,5.3-3.5,9.9-8.7,11l-11.6,2.4C153.5,82.5,153.4,82.6,153.2,82.6z"/>
	</g>
	<g>
		<path class="st3" d="M41.6,173.1c-0.9,0-1.7-0.5-2-1.4c-0.4-1.1,0.1-2.4,1.2-2.8l8.7-3.3c0.3-0.1,0.4-0.4,0.3-0.6l-22.2-55.8
			c0,0,0-0.1-0.1-0.1c-0.1-0.2-0.2-0.3-0.3-0.3c-0.1,0-0.2-0.1-0.4,0l-5.5,2.4c-1.1,0.5-2.4,0-2.8-1.1c-0.5-1.1,0-2.4,1.1-2.8
			l5.6-2.4c1.3-0.5,2.7-0.5,3.9,0.1c1.2,0.6,2.1,1.6,2.5,2.8l22.2,55.8c0,0,0,0.1,0.1,0.1c0.8,2.5-0.5,5.1-2.9,6l-8.7,3.3
			C42.1,173.1,41.9,173.1,41.6,173.1z"/>
	</g>
	<g>
		<path class="st3" d="M127,128c-0.2,0-0.4,0-0.6-0.1l-15-4c-1.1-0.3-1.8-1.5-1.5-2.6c0.3-1.1,1.5-1.8,2.6-1.5l15,4
			c1.1,0.3,1.8,1.5,1.5,2.6C128.8,127.4,128,128,127,128z"/>
	</g>
	<g>
		<path class="st3" d="M137.8,87.9c-0.2,0-0.4,0-0.6-0.1c-1.1-0.3-1.8-1.5-1.5-2.6l2.5-9.3l-11.3-3c-1.1-0.3-1.8-1.5-1.5-2.6
			c0.3-1.1,1.5-1.8,2.6-1.5l13.4,3.6c0.6,0.1,1,0.5,1.3,1c0.3,0.5,0.4,1.1,0.2,1.6l-3.1,11.4C139.6,87.3,138.7,87.9,137.8,87.9z"/>
	</g>
	<g>
		<path class="st3" d="M85.8,75.6c-0.2,0-0.4,0-0.6-0.1c-1.1-0.3-1.8-1.5-1.5-2.6L87.2,60c0.1-0.6,0.5-1,1-1.3
			c0.5-0.3,1.1-0.4,1.6-0.2l13.7,3.7c1.1,0.3,1.8,1.5,1.5,2.6c-0.3,1.1-1.5,1.8-2.6,1.5l-11.6-3.1L87.9,74
			C87.7,74.9,86.8,75.6,85.8,75.6z"/>
	</g>
	<g>
		<path class="st3" d="M89.7,118c-0.2,0-0.4,0-0.6-0.1l-14.2-3.8c-0.6-0.1-1-0.5-1.3-1c-0.3-0.5-0.4-1.1-0.2-1.6l3.7-13.8
			c0.3-1.1,1.5-1.8,2.6-1.5c1.1,0.3,1.8,1.5,1.5,2.6l-3.1,11.7l12.1,3.2c1.1,0.3,1.8,1.5,1.5,2.6C91.5,117.4,90.6,118,89.7,118z"/>
	</g>
	<g>
		<path class="st3" d="M116.9,110.6c-0.2,0-0.4,0-0.6-0.1l-24-6.4c-1.1-0.3-1.8-1.5-1.5-2.6l6.4-24c0.3-1.1,1.5-1.8,2.6-1.5l24,6.4
			c1.1,0.3,1.8,1.5,1.5,2.6l-6.4,24C118.7,109.9,117.9,110.6,116.9,110.6z M95.6,100.5l19.8,5.3l5.3-19.8l-19.8-5.3L95.6,100.5z"/>
	</g>
	
		<rect x="103.5" y="88.6" transform="matrix(0.2588 -0.9659 0.9659 0.2588 -9.8809 173.5484)" class="st3" width="9.3" height="9.3"/>
</g>
</svg>
