<?xml version="1.0" encoding="utf-8"?>
<!-- Generator: Adobe Illustrator 25.0.0, SVG Export Plug-In . SVG Version: 6.00 Build 0)  -->
<svg version="1.1" id="Layer_1" xmlns="http://www.w3.org/2000/svg" xmlns:xlink="http://www.w3.org/1999/xlink" x="0px" y="0px"
	 viewBox="0 0 193.1 193.1" style="enable-background:new 0 0 193.1 193.1;" xml:space="preserve">
<style type="text/css">
	.st0{fill:#FFFFFF;fill-opacity:0;}
	.st1{fill:#BCA644;}
	.st2{fill:#00AEEF;}
	.st3{fill:#231F20;}
</style>
<rect x="0.5" y="0.5" class="st0" width="192.1" height="192.1"/>
<g>
	<g>
		<path class="st1" d="M95.2,149.7H30.8V30.5h-9.3v120v8.5v1.9h80.7C102.2,161,97,152.3,95.2,149.7z"/>
		<path class="st2" d="M160.8,89c-3,0.6-8.2,1.3-14.5,0c-6.2-1.3-10.7-3.9-13.2-5.6c-2.5,1.7-7,4.3-13.2,5.6
			c-6.3,1.3-11.5,0.6-14.5,0c-9.2,19.1-8.4,39.8,0.6,53.5c1.6,2.3,11,16.3,27,20.4c0.1,0,0,0,0,0c0,0-0.1,0,0,0
			c16.1-4,25.5-18,27-20.4C169.2,128.8,170,108,160.8,89z"/>
	</g>
	<g>
		<g>
			<path class="st3" d="M133.1,172.7c-0.8,0-1.6-0.1-2.4-0.4l-5.2-1.6c0,0-0.1,0-0.1,0c-14.9-5.7-24.2-17.8-27.5-22.8
				c-11.2-16.8-11.7-41.6-1.3-63.2l2.5-5.3c0.5-1,1.5-1.5,2.6-1.3l5.8,1.2c3.4,0.7,7.1,0.7,10.5,0c3.4-0.7,6.7-2.1,9.6-4.1l4.2-2.9
				c0.8-0.5,1.8-0.5,2.6,0l4.3,2.9c2.9,2,6.2,3.4,9.6,4.1c3.4,0.7,7.1,0.7,10.5,0l5.8-1.2c1-0.2,2.1,0.3,2.6,1.3l2.5,5.3
				c10.4,21.6,9.9,46.4-1.3,63.2c-3.3,5-12.5,17.1-27.5,22.8c0,0-0.1,0-0.1,0l-5.2,1.6C134.8,172.6,133.9,172.7,133.1,172.7z
				 M126.9,166.3l5.2,1.6c0.7,0.2,1.4,0.2,2.1,0l5.2-1.6c13.6-5.2,22.2-16.4,25.2-21c10.3-15.5,10.7-38.5,1-58.6l-1.8-3.7l-4,0.8
				c-4,0.8-8.3,0.8-12.4,0c-4-0.8-7.9-2.5-11.3-4.8l-2.9-2l-2.9,2c-3.4,2.3-7.3,4-11.3,4.8c-4,0.8-8.3,0.8-12.4,0l-4-0.8l-1.8,3.7
				c-9.7,20.1-9.3,43.2,1,58.6C104.8,149.9,113.3,161.1,126.9,166.3z"/>
		</g>
		<g>
			<path class="st3" d="M128.6,140c-0.6,0-1.2-0.2-1.6-0.7l-10.1-10.1c-0.9-0.9-0.9-2.4,0-3.3c0.9-0.9,2.4-0.9,3.3,0l8.2,8.2
				l17.6-23.8c0.8-1,2.2-1.3,3.2-0.5c1,0.8,1.2,2.2,0.5,3.2l-19.2,25.9c-0.4,0.5-1,0.9-1.7,0.9C128.7,140,128.7,140,128.6,140z"/>
		</g>
		<circle class="st3" cx="28.9" cy="170" r="2.3"/>
		<circle class="st3" cx="153.5" cy="49.4" r="2.3"/>
		<g>
			<path class="st3" d="M108,172.6H37.9c-1.3,0-2.3-1-2.3-2.3c0-1.3,1-2.3,2.3-2.3H108c1.3,0,2.3,1,2.3,2.3
				C110.4,171.6,109.3,172.6,108,172.6z"/>
		</g>
		<g>
			<path class="st3" d="M153.3,41c-1.3,0-2.3-1-2.3-2.3V23.6H24.1c-1.3,0-2.3-1-2.3-2.3c0-1.3,1-2.3,2.3-2.3h129.2
				c1.3,0,2.3,1,2.3,2.3v17.4C155.6,40,154.6,41,153.3,41z"/>
		</g>
		<g>
			<path class="st3" d="M100.3,162.1H20.6c-1.3,0-2.3-1-2.3-2.3V31.7c0-1.3,1-2.3,2.3-2.3h122.3c1.3,0,2.3,1,2.3,2.3v40.2
				c0,1.3-1,2.3-2.3,2.3s-2.3-1-2.3-2.3V34H22.9v123.5h77.4c1.3,0,2.3,1,2.3,2.3S101.6,162.1,100.3,162.1z"/>
		</g>
		<g>
			<path class="st3" d="M140.5,66.5h-120c-1.3,0-2.3-1-2.3-2.3c0-1.3,1-2.3,2.3-2.3h120c1.3,0,2.3,1,2.3,2.3
				C142.9,65.5,141.8,66.5,140.5,66.5z"/>
		</g>
		<g>
			<path class="st3" d="M84.8,99H20.6c-1.3,0-2.3-1-2.3-2.3c0-1.3,1-2.3,2.3-2.3h64.2c1.3,0,2.3,1,2.3,2.3C87.1,98,86.1,99,84.8,99z
				"/>
		</g>
		<g>
			<path class="st3" d="M83.3,131.5H20.6c-1.3,0-2.3-1-2.3-2.3c0-1.3,1-2.3,2.3-2.3h62.7c1.3,0,2.3,1,2.3,2.3
				C85.6,130.5,84.6,131.5,83.3,131.5z"/>
		</g>
		<g>
			<path class="st3" d="M39.7,56.1c-4.2,0-7.5-3.4-7.5-7.5c0-4.2,3.4-7.5,7.5-7.5s7.5,3.4,7.5,7.5C47.3,52.7,43.9,56.1,39.7,56.1z
				 M39.7,45.6c-1.6,0-2.9,1.3-2.9,2.9c0,1.6,1.3,2.9,2.9,2.9c1.6,0,2.9-1.3,2.9-2.9C42.6,46.9,41.3,45.6,39.7,45.6z"/>
		</g>
		<g>
			<path class="st3" d="M39.7,88c-4.2,0-7.5-3.4-7.5-7.5c0-4.2,3.4-7.5,7.5-7.5s7.5,3.4,7.5,7.5C47.3,84.6,43.9,88,39.7,88z
				 M39.7,77.5c-1.6,0-2.9,1.3-2.9,2.9s1.3,2.9,2.9,2.9c1.6,0,2.9-1.3,2.9-2.9S41.3,77.5,39.7,77.5z"/>
		</g>
		<g>
			<path class="st3" d="M39.7,119.9c-4.2,0-7.5-3.4-7.5-7.5c0-4.2,3.4-7.5,7.5-7.5s7.5,3.4,7.5,7.5
				C47.3,116.5,43.9,119.9,39.7,119.9z M39.7,109.5c-1.6,0-2.9,1.3-2.9,2.9c0,1.6,1.3,2.9,2.9,2.9c1.6,0,2.9-1.3,2.9-2.9
				C42.6,110.8,41.3,109.5,39.7,109.5z"/>
		</g>
		<g>
			<path class="st3" d="M39.7,151.8c-4.2,0-7.5-3.4-7.5-7.5c0-4.2,3.4-7.5,7.5-7.5s7.5,3.4,7.5,7.5
				C47.3,148.5,43.9,151.8,39.7,151.8z M39.7,141.4c-1.6,0-2.9,1.3-2.9,2.9s1.3,2.9,2.9,2.9c1.6,0,2.9-1.3,2.9-2.9
				S41.3,141.4,39.7,141.4z"/>
		</g>
		<g>
			<path class="st3" d="M92.6,50.8h-3.5c-1.3,0-2.3-1-2.3-2.3c0-1.3,1-2.3,2.3-2.3h3.5c1.3,0,2.3,1,2.3,2.3
				C94.9,49.8,93.8,50.8,92.6,50.8z M77.5,50.8H74c-1.3,0-2.3-1-2.3-2.3c0-1.3,1-2.3,2.3-2.3h3.5c1.3,0,2.3,1,2.3,2.3
				C79.8,49.8,78.8,50.8,77.5,50.8z M62.4,50.8h-3.5c-1.3,0-2.3-1-2.3-2.3c0-1.3,1-2.3,2.3-2.3h3.5c1.3,0,2.3,1,2.3,2.3
				C64.7,49.8,63.7,50.8,62.4,50.8z"/>
		</g>
		<g>
			<path class="st3" d="M77.5,83.1H74c-1.3,0-2.3-1-2.3-2.3s1-2.3,2.3-2.3h3.5c1.3,0,2.3,1,2.3,2.3S78.8,83.1,77.5,83.1z M62.4,83.1
				h-3.5c-1.3,0-2.3-1-2.3-2.3s1-2.3,2.3-2.3h3.5c1.3,0,2.3,1,2.3,2.3S63.7,83.1,62.4,83.1z"/>
		</g>
		<g>
			<path class="st3" d="M77.5,115.4H74c-1.3,0-2.3-1-2.3-2.3c0-1.3,1-2.3,2.3-2.3h3.5c1.3,0,2.3,1,2.3,2.3
				C79.8,114.4,78.8,115.4,77.5,115.4z M62.4,115.4h-3.5c-1.3,0-2.3-1-2.3-2.3c0-1.3,1-2.3,2.3-2.3h3.5c1.3,0,2.3,1,2.3,2.3
				C64.7,114.4,63.7,115.4,62.4,115.4z"/>
		</g>
		<g>
			<path class="st3" d="M77.5,147.7H74c-1.3,0-2.3-1-2.3-2.3s1-2.3,2.3-2.3h3.5c1.3,0,2.3,1,2.3,2.3S78.8,147.7,77.5,147.7z
				 M62.4,147.7h-3.5c-1.3,0-2.3-1-2.3-2.3s1-2.3,2.3-2.3h3.5c1.3,0,2.3,1,2.3,2.3S63.7,147.7,62.4,147.7z"/>
		</g>
		<g>
			<path class="st3" d="M130.7,55.7h-19.3c-1.3,0-2.3-1-2.3-2.3v-9.9c0-1.3,1-2.3,2.3-2.3h19.3c1.3,0,2.3,1,2.3,2.3v9.9
				C133,54.7,132,55.7,130.7,55.7z M113.7,51.1h14.7v-5.2h-14.7V51.1z"/>
		</g>
	</g>
</g>
</svg>
