<?xml version="1.0" encoding="utf-8"?>
<!-- Generator: Adobe Illustrator 25.0.0, SVG Export Plug-In . SVG Version: 6.00 Build 0)  -->
<svg version="1.1" id="Layer_1" xmlns="http://www.w3.org/2000/svg" xmlns:xlink="http://www.w3.org/1999/xlink" x="0px" y="0px"
	 viewBox="0 0 193.1 193.1" style="enable-background:new 0 0 193.1 193.1;" xml:space="preserve">
<style type="text/css">
	.st0{fill:#FFFFFF;fill-opacity:0;}
	.st1{fill:#BCA644;}
	.st2{fill:#00AEEF;}
	.st3{fill:#231F20;}
</style>
<rect x="0.5" y="0.5" class="st0" width="192.1" height="192.1"/>
<g>
	<g>
		<path class="st1" d="M98.1,65.6c1.6-1.6,2.7-3.8,2.7-6.2c0-4.8-3.9-8.5-8.5-8.5c-4.8,0-8.5,3.9-8.5,8.5c0,2.5,1.1,4.8,2.8,6.3
			h-0.2v10.5l6.2-4.1l6.2,4.1V65.6c0,0-0.1,0-0.2,0H98.1z"/>
		<path class="st1" d="M137.9,137.2c-1.9,1.1-4.8,2.3-8,4.4c-7.8,5.1-17.4,11.7-19,12.4c-2.9,1.1-6.2,1.9-18.7-1
			c-11.9-2.7-21.2-5-26.1-4.8c-4.1,0.2-15.8,1.8-15.8,1.8L45,125.4c-0.5,0.2-1,0.4-1.4,0.5l6.6,31.3c0,0,11.7-1.6,15.8-1.8
			c5-0.2,14.3,2.1,26.1,4.8c12.6,2.9,15.9,2.1,18.7,1c1.7-0.7,11.1-7.3,19-12.4c5.5-3.6,9.7-4.4,10.5-6.7
			C141.2,139.9,139.8,138.1,137.9,137.2z"/>
		<path class="st1" d="M85.5,136.9l15.5,7c0.6,0.3,1.1,0.4,1.7,0.4c1.2,0,2.4-0.5,3.2-1.4l0,0c0.3-0.3,0.5-0.7,0.7-1.1
			c0.2-0.5,0.3-0.9,0.4-1.4c0.2-0.2,0.4-0.4,0.6-0.6c0.4-0.4,0.7-0.9,0.9-1.3c0.6-1.1,0.8-2.3,0.7-3.5c-0.1-1.2-0.4-2.3-1.1-3.3
			c0.1-0.2,0.3-0.4,0.4-0.6c0-0.1,0.1-0.1,0.1-0.2l-0.7-0.3l-1.1-0.5c0.5,0.3,0.9,0.7,1.2,1.2c0,0.3-0.1,0.7-0.2,1
			c-0.1,0.2-0.1,0.4-0.2,0.5c-0.7,1.6-2.3,2.5-3.9,2.5c-0.6,0-1.2-0.1-1.7-0.4l-1.4-0.6l-10.9-5l0,0l-0.7-0.3
			c-0.6-0.3-1.1-0.4-1.7-0.4c-1.6,0-3.2,0.9-3.9,2.5C82.4,133.4,83.4,135.9,85.5,136.9z"/>
		<polygon class="st2" points="129.9,136.8 109.6,142.1 108.9,131.6 104.1,127.7 104.1,97.8 129.9,97.8 		"/>
	</g>
	<g>
		<path class="st3" d="M121.9,20.9c0,1.1-0.9,2.1-2.1,2.1c-1.1,0-2.1-0.9-2.1-2.1c0-1.1,0.9-2.1,2.1-2.1S121.9,19.7,121.9,20.9z"/>
		<g>
			<path class="st3" d="M41.7,173c-1,0-1.8-0.7-2-1.7c-0.2-1.1,0.5-2.2,1.6-2.4l8.6-1.6L41.1,125l-3.6,0.8c-1.1,0.2-2.2-0.4-2.4-1.5
				c-0.2-1.1,0.4-2.2,1.5-2.4l5.6-1.2c0.5-0.1,1.1,0,1.5,0.3c0.5,0.3,0.8,0.8,0.9,1.3l9.6,46.3c0.1,0.5,0,1.1-0.3,1.5
				c-0.3,0.5-0.8,0.8-1.3,0.9l-10.5,2C42,173,41.9,173,41.7,173z"/>
		</g>
		<g>
			<path class="st3" d="M105.8,165.1c-3,0-7.2-0.6-13.9-2.1c-1.6-0.4-3.1-0.7-4.6-1c-9.6-2.2-17.3-4-21.4-3.8
				c-4,0.2-15.7,1.7-15.8,1.8c-1,0.2-2-0.5-2.2-1.6l-6.6-31.7c-0.2-1,0.4-2,1.4-2.3c4-1.3,8.8-3.9,13.1-6.2c3.9-2.1,6.8-3.7,8.7-4.1
				c4.9-1,7.9-1.3,11.9-1.1c2.9,0.2,10.3,4.1,22.2,10.6c3.1,1.7,5.9,3.2,8.3,4.5c4.3,2.3,5.9,7.5,3.7,11.8c-0.1,0.2-0.2,0.5-0.4,0.7
				c1.9-0.6,3.9-1.4,6-2.2c6.6-2.7,14.2-5.7,22.3-2.8l0,0c1.9,0.7,3.5,2,4.3,3.6c0.6,1.3,0.7,2.8,0.2,4.3c-0.8,2.3-3.1,3.4-6,4.8
				c-1.7,0.8-3.5,1.8-5.6,3.1c-3.1,2-6.4,4.3-9.3,6.2c-5.9,4-9,6.1-10.2,6.5C110.5,164.6,108.7,165.1,105.8,165.1z M66.6,154.2
				c4.7,0,12.3,1.7,21.7,3.9c1.5,0.3,3,0.7,4.6,1c13,3,15.7,1.9,17.8,1.1c0.9-0.4,5.5-3.4,9.4-6.1c3-2,6.3-4.3,9.4-6.2
				c2.3-1.5,4.3-2.5,6-3.3c1.9-1,3.7-1.9,4-2.6c0.2-0.4,0.1-0.8,0-1.1c-0.3-0.6-1-1.2-1.9-1.5c-6.7-2.4-13.3,0.3-19.5,2.8
				c-6.4,2.6-13.1,5.2-19,1.4c-0.9-0.6-1.2-1.8-0.6-2.7c0.5-0.9,1.7-1.3,2.7-0.8c2.3,1.2,5.2,0.3,6.3-2c1.2-2.3,0.3-5.2-2-6.3
				c-2.5-1.3-5.4-2.9-8.4-4.6c-7.3-4-18.4-10-20.5-10.1c-3.1-0.2-5.8-0.1-10.9,1c-1.4,0.3-4.6,2-7.7,3.7c-3.9,2.1-8.1,4.4-12,5.9
				l6,28.2c3.5-0.5,11.1-1.4,14.3-1.5C66.2,154.2,66.4,154.2,66.6,154.2z"/>
		</g>
		<g>
			<path class="st3" d="M105.9,145.4c-0.4,0-0.7,0-1.1,0c-3-0.2-5.1-1.4-6-1.9c-3.2-1.7-7.8-3.8-14.3-6.2c-1-0.4-1.6-1.6-1.1-2.6
				c0.4-1,1.6-1.6,2.6-1.1c6.5,2.6,11.3,4.7,14.6,6.4c0.9,0.5,2.4,1.3,4.5,1.4c1.4,0.1,2.8-0.1,4.2-0.6c1.1-0.4,2.2,0.2,2.6,1.2
				c0.4,1.1-0.2,2.2-1.2,2.6C109.1,145.1,107.5,145.4,105.9,145.4z"/>
		</g>
		<g>
			<path class="st3" d="M58.8,62.9c-1.1,0-2-0.9-2-2V35.6c0-9.1,7.4-16.5,16.5-16.5h35.8c1.1,0,2,0.9,2,2s-0.9,2-2,2H73.3
				c-6.9,0-12.6,5.7-12.6,12.6v25.2C60.8,62,59.9,62.9,58.8,62.9z"/>
		</g>
		<g>
			<path class="st3" d="M150.1,150.7h-5.3c-1.1,0-2-0.9-2-2s0.9-2,2-2h5.3c1.7,0,3-1.3,3-3V59.8c0-0.8-0.3-1.5-0.9-2.1l-24.8-24.8
				c-0.6-0.6-1.3-0.9-2.1-0.9h-52c-2,0-3.7,1.6-3.7,3.7v68.4c0,1.1-0.9,2-2,2c-1.1,0-2-0.9-2-2V35.7c0-4.2,3.4-7.5,7.5-7.5h52.2
				c1.8,0,3.6,0.7,4.9,2L155,55c1.3,1.3,2,3.1,2,4.9v83.9C157,147.6,154,150.7,150.1,150.7z"/>
		</g>
		<g>
			<path class="st3" d="M153.1,59.7h-15.8c-6.2,0-11.9-5.6-11.9-11.4V32.5c0-1.1,0.7-2.1,1.8-2.6c1.2-0.5,2.6-0.3,3.5,0.6l23.8,23.8
				c1,1,1.3,2.6,0.8,3.8C154.9,59.1,154.1,59.7,153.1,59.7z M129.4,34.8v13.5c0,3.7,4,7.4,7.9,7.4h13L129.4,34.8z"/>
		</g>
		<g>
			<path class="st3" d="M80.4,80.8c-0.3,0-0.6-0.1-0.9-0.2c-0.6-0.3-1.1-1-1.1-1.8V60.2c0-1.1,0.9-2,2-2c1.1,0,2,0.9,2,2v15l6.7-4.5
				c0.7-0.4,1.5-0.4,2.2,0l6.6,4.5V60.9c-0.2-0.3-0.2-0.6-0.2-1c0-1.1,0.9-2,2-2h0.2c1.1,0,2,0.9,2,2v18.8c0,0.7-0.4,1.4-1.1,1.8
				c-0.6,0.3-1.4,0.3-2-0.1l-8.6-5.8l-8.6,5.8C81.1,80.6,80.7,80.8,80.4,80.8z"/>
		</g>
		<g>
			<path class="st3" d="M90.3,67c-7.2,0-13.1-5.9-13.1-13.1S83,40.8,90.3,40.8c7.2,0,13.1,5.9,13.1,13.1C103.4,61.1,97.5,67,90.3,67
				z M90.3,44.6c-5.1,0-9.1,4.1-9.1,9.1s4.1,9.1,9.1,9.1s9.1-4.1,9.1-9.1C99.4,48.8,95.3,44.6,90.3,44.6z"/>
		</g>
		<g>
			<path class="st3" d="M129.9,133.8c-1.1,0-2-0.9-2-2V119h-24.8c-1.1,0-2-0.9-2-2c0-1.1,0.9-2,2-2h26.8c1.1,0,2,0.9,2,2v14.8
				C131.9,132.9,131,133.8,129.9,133.8z"/>
		</g>
		<g>
			<path class="st3" d="M129.9,114c-1.1,0-2-0.9-2-2v-3.3h-24.8c-1.1,0-2-0.9-2-2s0.9-2,2-2h26.8c1.1,0,2,0.9,2,2v5.3
				C131.9,113.1,131,114,129.9,114z"/>
		</g>
		<g>
			<path class="st3" d="M97.2,120.2c-1.1,0-2-0.9-2-2v-22c0-1.1,0.9-2,2-2h32.7c1.1,0,2,0.9,2,2v5.3c0,1.1-0.9,2-2,2
				c-1.1,0-2-0.9-2-2v-3.3H99.2v20C99.2,119.3,98.3,120.2,97.2,120.2z"/>
		</g>
		<g>
			<path class="st3" d="M129,128.8h-17.4c-1.1,0-2-0.9-2-2s0.9-2,2-2H129c1.1,0,2,0.9,2,2S130,128.8,129,128.8z"/>
		</g>
		<g>
			<path class="st3" d="M120.2,48.2h-11c-1.1,0-2-0.9-2-2c0-1.1,0.9-2,2-2h11c1.1,0,2,0.9,2,2C122.2,47.3,121.3,48.2,120.2,48.2z"/>
		</g>
		<g>
			<path class="st3" d="M120.2,60.4h-11c-1.1,0-2-0.9-2-2c0-1.1,0.9-2,2-2h11c1.1,0,2,0.9,2,2C122.2,59.5,121.3,60.4,120.2,60.4z"/>
		</g>
		<g>
			<path class="st3" d="M143,72.6h-33.8c-1.1,0-2-0.9-2-2s0.9-2,2-2H143c1.1,0,2,0.9,2,2S144.1,72.6,143,72.6z"/>
		</g>
		<g>
			<path class="st3" d="M143,84.9h-33.8c-1.1,0-2-0.9-2-2c0-1.1,0.9-2,2-2H143c1.1,0,2,0.9,2,2S144.1,84.9,143,84.9z"/>
		</g>
	</g>
</g>
</svg>
